<?xml version="1.0" standalone="no"?><!-- Generator: Gravit.io --><svg xmlns="http://www.w3.org/2000/svg" xmlns:xlink="http://www.w3.org/1999/xlink" style="isolation:isolate" viewBox="0 0 200 200" width="200" height="200"><defs><clipPath id="_clipPath_le00jiZoDP4prTT1SNhPxJFW0otQv03X"><rect width="200" height="200"/></clipPath></defs><g clip-path="url(#_clipPath_le00jiZoDP4prTT1SNhPxJFW0otQv03X)"><rect width="200" height="200" style="fill:rgb(185,185,185)"/><rect x="10" y="10" width="70" height="70" transform="matrix(1,0,0,1,0,0)" fill="rgb(255,255,255)"/><rect x="120" y="10" width="70" height="70" transform="matrix(1,0,0,1,0,0)" fill="rgb(255,255,255)"/><rect x="10" y="120" width="70" height="70" transform="matrix(1,0,0,1,0,0)" fill="rgb(255,255,255)"/><rect x="120" y="120" width="70" height="70" transform="matrix(1,0,0,1,0,0)" fill="rgb(255,255,255)"/><g style="isolation:isolate"><path d=" M 0 200 L 90 200 L 90 180 L 20 180 L 20 130 L 90 130 L 90 110 L 0 110 L 0 200 Z " fill="rgb(255,255,255)"/><path d=" M 0 90 L 90 90 L 90 70 L 20 70 L 20 20 L 90 20 L 90 0 L 0 0 L 0 90 Z " fill="rgb(255,255,255)"/><path d=" M 110 90 L 200 90 L 200 70 L 130 70 L 130 20 L 200 20 L 200 0 L 110 0 L 110 90 Z " fill="rgb(255,255,255)"/><path d=" M 110 200 L 200 200 L 200 180 L 130 180 L 130 130 L 200 130 L 200 110 L 110 110 L 110 200 Z " fill="rgb(255,255,255)"/><path d=" M 70 110 L 70 200 L 90 200 L 90 110 L 70 110 Z " fill="rgb(255,255,255)"/><path d=" M 70 0 L 70 90 L 90 90 L 90 0 L 70 0 Z " fill="rgb(255,255,255)"/><path d=" M 180 0 L 180 90 L 200 90 L 200 0 L 180 0 Z " fill="rgb(255,255,255)"/><path d=" M 180 110 L 180 200 L 200 200 L 200 110 L 180 110 Z " fill="rgb(255,255,255)"/></g></g></svg>