<?xml version="1.0" standalone="no"?><!-- Generator: Gravit.io --><svg xmlns="http://www.w3.org/2000/svg" xmlns:xlink="http://www.w3.org/1999/xlink" style="isolation:isolate" viewBox="0 0 300 280" width="300" height="280"><defs><clipPath id="_clipPath_xJJgLis8ukzkAmBY510rIiy8TgEZrREt"><rect width="300" height="280"/></clipPath></defs><g clip-path="url(#_clipPath_xJJgLis8ukzkAmBY510rIiy8TgEZrREt)"><rect width="300" height="280" style="fill:rgb(185,185,185)"/><g style="isolation:isolate"><path d=" M 42.995 244.977 Q 24.437 245.252 0 240 L -10 260 C 8.261 264.724 24.758 267.185 39.473 267.366 L 42.995 244.977 L 42.995 244.977 Z " fill="rgb(255,255,255)"/><path d=" M 57.714 266.284 Q 102.298 260.363 120 220 C 120.614 218.601 121.185 217.214 121.691 215.845 L 121.691 215.845 L 100 210 C 94.653 227.839 82.065 238.87 62.172 243.034 L 57.714 266.284 L 57.714 266.284 Z " fill="rgb(255,255,255)"/><path d=" M 120 190 C 117.943 166.444 105.483 146.454 95.453 127.484 L 95.453 127.484 L 80.738 141.112 C 89.723 157.936 100.076 172.888 101.908 190 L 120 190 L 120 190 Z " fill="rgb(255,255,255)"/><path d=" M 102.405 44.304 Q 89.179 60.634 86.625 75.75 C 85.064 84.987 82.906 98.207 86.112 107.202 L 86.112 107.202 L 71.565 120.758 C 66.591 106.417 64.618 90.087 70 70 C 73.632 56.443 79.29 44.849 87.035 35.276 L 102.405 44.304 L 102.405 44.304 Z " fill="rgb(255,255,255)"/><path d=" M 116.637 33.296 C 129.723 25.941 147.519 21.514 170 20 L 170 0 Q 130.775 1.788 106.279 17.849 L 116.637 33.296 L 116.637 33.296 Z " fill="rgb(255,255,255)"/></g><path d=" M 190 90 L 170 110 L 260 200 L 280 180 L 190 90 Z " fill="rgb(255,255,255)"/><path d=" M 280 110 L 260 90 L 170 180 L 190 200 L 280 110 Z " fill="rgb(255,255,255)"/></g></svg>