<?xml version="1.0" standalone="no"?><!-- Generator: Gravit.io --><svg xmlns="http://www.w3.org/2000/svg" xmlns:xlink="http://www.w3.org/1999/xlink" style="isolation:isolate" viewBox="0 0 300 280" width="300" height="280"><defs><clipPath id="_clipPath_KDtEw30sMwINWbvwwDijZAOqhBAQ1AE9"><rect width="300" height="280"/></clipPath></defs><g clip-path="url(#_clipPath_KDtEw30sMwINWbvwwDijZAOqhBAQ1AE9)"><rect width="300" height="280" style="fill:rgb(185,185,185)"/><g style="isolation:isolate"><path d=" M 30 230 L 30 280 L 50 280 L 50 230 L 30 230 Z " fill="rgb(255,255,255)"/><path d=" M 270 230 L 270 280 L 250 280 L 250 230 L 270 230 Z " fill="rgb(255,255,255)"/><path d=" M 40 240 L 40 270 L 260 270 L 260 240 L 40 240 Z " fill="rgb(255,255,255)"/></g><g style="isolation:isolate"><path d=" M 30 0 L 30 50 L 50 50 L 50 0 L 30 0 Z " fill="rgb(255,255,255)"/><path d=" M 270 0 L 270 50 L 250 50 L 250 0 L 270 0 Z " fill="rgb(255,255,255)"/><path d=" M 40 10 L 40 40 L 260 40 L 260 10 L 40 10 Z " fill="rgb(255,255,255)"/></g><path d=" M 70 110 L 100 110 L 100 80 L 200 80 L 200 110 L 230 110 L 230 50 L 70 50 L 70 110 Z " fill="rgb(255,255,255)"/><path d=" M 70 150 L 100 150 L 100 120 L 200 120 L 200 150 L 230 150 L 230 100 L 70 100 L 70 150 Z " fill="rgb(255,255,255)"/><path d=" M 70 190 L 100 190 L 100 160 L 160 160 L 160 190 L 230 190 L 230 140 L 70 140 L 70 190 Z " fill="rgb(255,255,255)"/><path d=" M 70 230 L 230 230 L 230 180 L 70 180 L 70 230 Z " fill="rgb(255,255,255)"/></g></svg>