<?xml version="1.0" standalone="no"?><!-- Generator: Gravit.io --><svg xmlns="http://www.w3.org/2000/svg" xmlns:xlink="http://www.w3.org/1999/xlink" style="isolation:isolate" viewBox="0 0 280 280" width="280" height="280"><defs><clipPath id="_clipPath_n7aRV4UxF7w5D8OhKat7aMV0QXTNG9um"><rect width="280" height="280"/></clipPath></defs><g clip-path="url(#_clipPath_n7aRV4UxF7w5D8OhKat7aMV0QXTNG9um)"><rect width="280" height="280" style="fill:rgb(185,185,185)"/><g style="isolation:isolate"><path d=" M 130 0 L 150 0 L 150 90 L 130 90 L 130 0 Z " fill="rgb(255,255,255)"/><path d=" M 130 190 L 150 190 L 150 280 L 130 280 L 130 190 Z " fill="rgb(255,255,255)"/><path d=" M 90 130 L 90 150 L 0 150 L 0 130 L 90 130 Z " fill="rgb(255,255,255)"/><path d=" M 280 130 L 280 150 L 190 150 L 190 130 L 280 130 Z " fill="rgb(255,255,255)"/><path d=" M 140 250 C 79.289 250 30 200.711 30 140 C 30 79.289 79.289 30 140 30 L 140 50 C 90.328 50 50 90.328 50 140 C 50 189.672 90.328 230 140 230 C 140 230 140 250 140 250 Z " fill="rgb(235,235,235)"/><path d=" M 140 250 C 200.711 250 250 200.711 250 140 C 250 79.289 200.711 30 140 30 L 140 50 C 189.672 50 230 90.328 230 140 C 230 189.672 189.672 230 140 230 C 140 230 140 250 140 250 Z " fill="rgb(235,235,235)"/></g></g></svg>