<?xml version="1.0" standalone="no"?><!-- Generator: Gravit.io --><svg xmlns="http://www.w3.org/2000/svg" xmlns:xlink="http://www.w3.org/1999/xlink" style="isolation:isolate" viewBox="0 0 220 220" width="220" height="220"><defs><clipPath id="_clipPath_EsG1d7pUcEhxqvG69XZKlKKNzulCvzip"><rect width="220" height="220"/></clipPath></defs><g clip-path="url(#_clipPath_EsG1d7pUcEhxqvG69XZKlKKNzulCvzip)"><rect width="220" height="220" style="fill:rgb(221,221,221)"/><path d=" M 110 200 C 60.328 200 20 159.672 20 110 C 20 60.328 60.328 20 110 20 L 110 60 C 82.404 60 60 82.404 60 110 C 60 137.596 82.404 160 110 160 L 110 200 Z " fill="rgb(235,235,235)"/><path d=" M 110 200 C 159.672 200 200 159.672 200 110 C 200 60.328 159.672 20 110 20 L 110 60 C 137.596 60 160 82.404 160 110 C 160 137.596 137.596 160 110 160 L 110 200 Z " fill="rgb(235,235,235)"/><path d=" M 90 30 L 90 0 L 130 0 L 130 30 L 90 30 Z " fill="rgb(235,235,235)"/><path d=" M 152.426 39.289 L 173.64 18.076 L 201.924 46.36 L 180.711 67.574 L 152.426 39.289 Z " fill="rgb(235,235,235)"/><path d=" M 190 90 L 220 90 L 220 130 L 190 130 L 190 90 Z " fill="rgb(235,235,235)"/><path d=" M 180.711 152.426 L 201.924 173.64 L 173.64 201.924 L 152.426 180.711 L 180.711 152.426 Z " fill="rgb(235,235,235)"/><path d=" M 130 190 L 130 220 L 90 220 L 90 190 L 130 190 Z " fill="rgb(235,235,235)"/><path d=" M 67.574 180.711 L 46.36 201.924 L 18.076 173.64 L 39.289 152.426 L 67.574 180.711 Z " fill="rgb(235,235,235)"/><path d=" M 30 130 L 0 130 L 0 90 L 30 90 L 30 130 Z " fill="rgb(235,235,235)"/><path d=" M 39.289 67.574 L 18.076 46.36 L 46.36 18.076 L 67.574 39.289 L 39.289 67.574 Z " fill="rgb(235,235,235)"/></g></svg>