<?xml version="1.0" standalone="no"?><!-- Generator: Gravit.io --><svg xmlns="http://www.w3.org/2000/svg" xmlns:xlink="http://www.w3.org/1999/xlink" style="isolation:isolate" viewBox="0 0 290 250" width="290" height="250"><defs><clipPath id="_clipPath_stUCfCP0IY0ZqifHglxCOc6XYmoo7QPZ"><rect width="290" height="250"/></clipPath></defs><g clip-path="url(#_clipPath_stUCfCP0IY0ZqifHglxCOc6XYmoo7QPZ)"><rect width="290" height="250" style="fill:rgb(164,164,164)"/><g style="isolation:isolate"><g style="isolation:isolate"><path d=" M 30 50 L 30 30 C 74.46 7.162 111.127 7.162 140 30 L 140 50 L 120 50 L 120 50 C 114.481 44.481 83.115 44.481 50 50 L 50 50 L 30 50 L 30 50 Z " fill="rgb(255,255,255)"/><path d=" M 260 50 L 260 30 C 215.54 7.162 178.873 7.162 150 30 L 150 50 L 170 50 L 170 50 C 175.519 44.481 206.885 44.481 240 50 L 240 50 L 260 50 L 260 50 Z " fill="rgb(255,255,255)"/><path d=" M 30 90 L 30 50 L 30 50 L 40 40 L 50 50 L 50 70 L 50 70 C 83.115 64.481 114.481 64.481 120 70 L 120 70 L 120 50 L 130 40 L 140 50 L 140 90 L 120 90 L 120 90 C 114.481 84.481 83.115 84.481 50 90 L 50 90 L 30 90 L 30 90 Z " fill="rgb(255,255,255)"/><path d=" M 30 130 L 30 90 L 30 90 L 40 80 L 50 90 L 50 110 L 50 110 C 83.115 104.481 114.481 104.481 120 110 L 120 110 L 120 90 L 130 80 L 140 90 L 140 130 L 120 130 L 120 130 C 114.481 124.481 83.115 124.481 50 130 L 50 130 L 30 130 L 30 130 Z " fill="rgb(255,255,255)"/><path d=" M 30 130 L 30 200 C 59.158 191.541 121.864 192.914 140 200 L 140 130 L 130 120 L 120 130 L 120 150 L 120 150 C 114.481 144.481 83.115 144.481 50 150 L 50 150 L 50 130 L 40 120 L 30 130 L 30 130 Z " fill="rgb(255,255,255)"/></g><g style="isolation:isolate"><path d=" M 260 90 L 260 50 L 260 50 L 250 40 L 240 50 L 240 70 L 240 70 C 206.885 64.481 175.519 64.481 170 70 L 170 70 L 170 50 L 160 40 L 150 50 L 150 90 L 170 90 L 170 90 C 175.519 84.481 206.885 84.481 240 90 L 240 90 L 260 90 L 260 90 Z " fill="rgb(255,255,255)"/><path d=" M 260 130 L 260 90 L 260 90 L 250 80 L 240 90 L 240 110 L 240 110 C 206.885 104.481 175.519 104.481 170 110 L 170 110 L 170 90 L 160 80 L 150 90 L 150 130 L 170 130 L 170 130 C 175.519 124.481 206.885 124.481 240 130 L 240 130 L 260 130 L 260 130 Z " fill="rgb(255,255,255)"/><path d=" M 260 130 L 260 200 C 230.842 191.541 168.136 192.914 150 200 L 150 130 L 160 120 L 170 130 L 170 150 L 170 150 C 175.519 144.481 206.885 144.481 240 150 L 240 150 L 240 130 L 250 120 L 260 130 L 260 130 Z " fill="rgb(255,255,255)"/><path d=" M 220 120 L 220 160 L 250 160 L 250 120 L 220 120 Z " fill="rgb(255,255,255)"/></g><path d=" M 150 210 L 140 210 C 95.667 198 56.667 205.333 20 210 L 20 40 L 0 50 L 0 240 Q 100.652 220.859 130 240 L 150 240 L 150 210 Z " fill="rgb(255,255,255)"/><path d=" M 140 230 L 140 220 L 150 210 C 194.333 198 233.333 205.333 270 210 L 270 40 L 290 50 L 290 240 Q 189.348 220.859 160 240 L 150 240 L 140 230 Z " fill="rgb(255,255,255)"/></g></g></svg>