<?xml version="1.0" standalone="no"?><!-- Generator: Gravit.io --><svg xmlns="http://www.w3.org/2000/svg" xmlns:xlink="http://www.w3.org/1999/xlink" style="isolation:isolate" viewBox="0 0 200 230" width="200" height="230"><defs><clipPath id="_clipPath_Nok3uEH1Jm99jeHLcSF2bePqOtQYHftn"><rect width="200" height="230"/></clipPath></defs><g clip-path="url(#_clipPath_Nok3uEH1Jm99jeHLcSF2bePqOtQYHftn)"><rect width="200" height="230" style="fill:rgb(206,206,206)"/><path d=" M 100 230 L 30 230 C 13.443 230 0 216.557 0 200 L 0 170 L 100 170 L 100 230 L 100 230 Z " fill="rgb(255,255,255)"/><path d=" M 100 230 L 190 230 C 195.519 230 200 225.519 200 220 L 200 200 L 200 200 L 100 200 L 100 230 L 100 230 Z " fill="rgb(255,255,255)"/><path d=" M 200 60 C 200 54.481 195.519 50 190 50 L 35 50 C 26.721 50 20 43.279 20 35 L 20 25 C 20 16.721 26.721 10 35 10 L 190 10 L 190 40 L 200 40 L 200 20 L 200 10 C 200 4.481 195.519 0 190 0 L 30 0 C 13.443 0 0 13.443 0 30 L 0 60 L 200 60 Z " fill="rgb(255,255,255)"/><path d=" M 80 60 L 80 70 L 40 70 L 10 170 L 0 170 L 0 60 L 40 60 L 80 60 Z " fill="rgb(255,255,255)"/><path d=" M 70 70 L 100 170 L 100 60 L 70 60 L 70 70 Z " fill="rgb(255,255,255)"/><path d=" M 160 125 L 110 125 L 110 110 L 180 110 L 180 125 L 130 185 L 180 185 L 180 200 L 200 200 L 200 60 L 100 60 L 100 200 L 110 200 L 110 185 L 160 125 Z " fill="rgb(255,255,255)"/><path d=" M 30 170 L 80 170 L 75 150 L 35 150 L 30 170 Z " fill="rgb(255,255,255)"/><path d=" M 37.5 140 L 72.5 140 L 60 90 L 50 90 L 37.5 140 Z " fill="rgb(255,255,255)"/></g></svg>