<?xml version="1.0" standalone="no"?><!-- Generator: Gravit.io --><svg xmlns="http://www.w3.org/2000/svg" xmlns:xlink="http://www.w3.org/1999/xlink" style="isolation:isolate" viewBox="0 0 240 260" width="240" height="260"><defs><clipPath id="_clipPath_5Ndwckmh1bvJhIqZ1I1OIC8GAxTzNaoc"><rect width="240" height="260"/></clipPath></defs><g clip-path="url(#_clipPath_5Ndwckmh1bvJhIqZ1I1OIC8GAxTzNaoc)"><rect width="240" height="260" style="fill:rgb(206,206,206)"/><path d=" M 30 0 L 30 20 L 210 20 L 210 0 L 30 0 Z " fill="rgb(255,255,255)"/><path d=" M 30 240 L 30 260 L 210 260 L 210 240 L 30 240 Z " fill="rgb(255,255,255)"/><path d=" M 80 210 L 80 230 L 160 230 L 160 210 L 136 192 C 127.169 185.377 112.831 185.377 104 192 L 80 210 Z " fill="rgb(255,255,255)"/><path d=" M 147.071 82.929 L 152.929 77.071 C 156.832 73.168 160 65.519 160 60 L 160 60 L 80 60 L 80 60 C 80 65.519 83.168 73.168 87.071 77.071 L 92.929 82.929 C 96.832 86.832 104.008 92.004 108.944 94.472 L 111.056 95.528 C 115.992 97.996 124.008 97.996 128.944 95.528 L 131.056 94.472 C 135.992 92.004 143.168 86.832 147.071 82.929 Z " fill="rgb(255,255,255)"/><path d=" M 55 240 L 50 250 L 40 240 L 40 230 C 40 174.808 69.126 130 105 130 L 105 130 L 110 120 L 120 130 L 120 130 C 120 138.279 113.279 145 105 145 L 105 145 L 105 145 C 77.404 145 55 187.568 55 240 L 55 240 Z " fill="rgb(255,255,255)"/><path d=" M 55 20 L 50 10 L 40 20 L 40 30 C 40 85.192 69.126 130 105 130 L 105 130 L 110 140 L 120 130 L 120 130 C 120 121.721 113.279 115 105 115 L 105 115 L 105 115 C 77.404 115 55 72.432 55 20 L 55 20 Z " fill="rgb(255,255,255)"/><path d=" M 185 240 L 190 250 L 200 240 L 200 230 C 200 174.808 170.874 130 135 130 L 135 130 L 130 120 L 120 130 L 120 130 C 120 138.279 126.721 145 135 145 L 135 145 L 135 145 C 162.596 145 185 187.568 185 240 L 185 240 Z " fill="rgb(255,255,255)"/><path d=" M 185 20 L 190 10 L 200 20 L 200 30 C 200 85.192 170.874 130 135 130 L 135 130 L 130 140 L 120 130 L 120 130 C 120 121.721 126.721 115 135 115 L 135 115 L 135 115 C 162.596 115 185 72.432 185 20 L 185 20 Z " fill="rgb(255,255,255)"/></g></svg>