<?xml version="1.0" standalone="no"?><!-- Generator: Gravit.io --><svg xmlns="http://www.w3.org/2000/svg" xmlns:xlink="http://www.w3.org/1999/xlink" style="isolation:isolate" viewBox="0 0 220 300" width="220" height="300"><defs><clipPath id="_clipPath_rutyF9IUdFzVGC1T8xwYPdA7SEmd0lzF"><rect width="220" height="300"/></clipPath></defs><g clip-path="url(#_clipPath_rutyF9IUdFzVGC1T8xwYPdA7SEmd0lzF)"><rect width="220" height="300" style="fill:rgb(221,221,221)"/><g style="isolation:isolate"><path d=" M 20 160 C 20 209.672 60.328 250 110 250 C 159.672 250 200 209.672 200 160 L 180 160 C 180 198.634 148.634 230 110 230 C 71.366 230 40 198.634 40 160 L 20 160 Z " fill="rgb(235,235,235)"/><path d=" M 110 80 L 110 60 L 60 60 C 60 32.404 82.404 10 110 10 L 110 10 C 137.596 10 160 32.404 160 60 L 160 160 C 160 187.596 137.596 210 110 210 L 110 210 C 82.404 210 60 187.596 60 160 L 110 160 L 110 140 L 60 140 L 60 120 L 110 120 L 110 100 L 60 100 L 60 80 L 110 80 Z " fill="rgb(255,255,255)"/><path d=" M 100 240 L 120 240 L 120 280 L 140 280 L 150 300 L 70 300 L 80 280 L 100 280 L 100 240 Z " fill="rgb(255,255,255)"/></g></g></svg>