<?xml version="1.0" standalone="no"?><!-- Generator: Gravit.io --><svg xmlns="http://www.w3.org/2000/svg" xmlns:xlink="http://www.w3.org/1999/xlink" style="isolation:isolate" viewBox="0 0 260 270" width="260" height="270"><defs><clipPath id="_clipPath_Nzc7hkMrU5p8YGsMC5hmK8ZW8ba6u8Rq"><rect width="260" height="270"/></clipPath></defs><g clip-path="url(#_clipPath_Nzc7hkMrU5p8YGsMC5hmK8ZW8ba6u8Rq)"><rect width="260" height="270" style="fill:rgb(221,221,221)"/><g style="isolation:isolate"><path d=" M 151.679 15.547 L 146.641 18.906 C 137.457 25.029 122.543 25.029 113.359 18.906 L 108.321 15.547 C 103.728 12.486 95.992 12.004 91.056 14.472 L 88.944 15.528 C 84.008 17.996 79.121 24.394 78.039 29.806 L 70 70 L 190 70 L 181.961 29.806 C 180.879 24.394 175.992 17.996 171.056 15.528 L 168.944 14.472 C 164.008 12.004 156.272 12.486 151.679 15.547 Z " fill="rgb(255,255,255)"/><path d=" M 40 80 L 20 100 L 240 100 L 220 80 L 40 80 Z " fill="rgb(255,255,255)"/><path d=" M 110 260 L 90 260 L 40 210 L 60 190 L 20 180 L 60 140 L 110 260 Z " fill="rgb(255,255,255)"/><path d=" M 150 260 L 170 260 L 220 210 L 200 190 L 240 180 L 200 140 L 150 260 Z " fill="rgb(255,255,255)"/><path d=" M 80 110 L 91.758 151.154 C 96.307 167.075 113.443 180 130 180 L 130 180 C 146.557 180 163.693 167.075 168.242 151.154 L 180 110 L 80 110 Z " fill="rgb(255,255,255)"/></g></g></svg>