<?xml version="1.0" standalone="no"?><!-- Generator: Gravit.io --><svg xmlns="http://www.w3.org/2000/svg" xmlns:xlink="http://www.w3.org/1999/xlink" style="isolation:isolate" viewBox="0 0 250 230" width="250" height="230"><defs><clipPath id="_clipPath_cTcuzcsoMfZAHE43CMWXTP2cgGLmlLw0"><rect width="250" height="230"/></clipPath></defs><g clip-path="url(#_clipPath_cTcuzcsoMfZAHE43CMWXTP2cgGLmlLw0)"><rect width="250" height="230" style="fill:rgb(206,206,206)"/><g style="isolation:isolate"><path d=" M 0 0 L 0 60 L 0 120 L 10 130 L 20 120 L 20 60 L 110 60 L 110 120 L 0 120 L 0 190 L 210 190 L 210 160 L 20 160 L 20 140 L 190 140 L 190 160 L 200 170 L 210 160 L 210 140 L 210 120 L 130 120 L 130 100 L 190 100 L 190 120 L 200 130 L 210 120 L 210 100 L 210 80 L 130 80 L 130 60 L 190 60 L 190 80 L 200 90 L 210 80 L 210 60 L 210 20 L 200 10 L 160 10 L 150 20 L 150 40 L 70 40 L 70 20 L 210 20 L 210 0 L 0 0 Z " fill="rgb(255,255,255)"/><path d=" M 230 20 L 250 40 L 250 230 L 40 230 L 20 210 L 230 210 L 230 20 Z " fill="rgb(255,255,255)"/></g></g></svg>