<?xml version="1.0" standalone="no"?><!-- Generator: Gravit.io --><svg xmlns="http://www.w3.org/2000/svg" xmlns:xlink="http://www.w3.org/1999/xlink" style="isolation:isolate" viewBox="0 0 230 220" width="230" height="220"><defs><clipPath id="_clipPath_okigbDLssNwTvM99W3bx9NoHrR3XC5yP"><rect width="230" height="220"/></clipPath></defs><g clip-path="url(#_clipPath_okigbDLssNwTvM99W3bx9NoHrR3XC5yP)"><rect width="230" height="220" style="fill:rgb(221,221,221)"/><path d=" M 230 95 C 230 53.606 178.47 20 115 20 C 51.53 20 0 53.606 0 95 L 50 95 L 50 95 C 50 86.721 56.721 80 65 80 L 65 80 L 65 80 C 73.279 80 80 86.721 80 95 L 80 95 L 100 95 L 100 95 C 100 86.721 106.721 80 115 80 L 115 80 L 115 80 C 123.279 80 130 86.721 130 95 L 130 95 L 150 95 L 150 95 C 150 86.721 156.721 80 165 80 L 165 80 L 165 80 C 173.279 80 180 86.721 180 95 L 180 95 L 230 95 L 230 95 Z " fill="rgb(235,235,235)"/><path d=" M 230 95 C 230 136.394 178.47 170 115 170 C 51.53 170 0 136.394 0 95 L 50 95 L 50 95 C 50 103.279 56.721 110 65 110 L 65 110 L 65 110 C 73.279 110 80 103.279 80 95 L 80 95 L 100 95 L 100 95 C 100 103.279 106.721 110 115 110 L 115 110 L 115 110 C 123.279 110 130 103.279 130 95 L 130 95 L 150 95 L 150 95 C 150 103.279 156.721 110 165 110 L 165 110 L 165 110 C 173.279 110 180 103.279 180 95 L 180 95 L 230 95 L 230 95 Z " fill="rgb(235,235,235)"/><path d=" M 20 210 L 20 210 L 10 210 L 10 210 C 33.979 191.764 47.421 160.398 40 140 L 40 140 L 60 130 L 100 150 L 100 160 L 100 160 C 88.962 176.557 53.115 198.962 20 210 Z " fill="rgb(255,255,255)"/><path d=" M 0 95 L 10 85 L 40 85 L 50 95 L 40 105 L 10 105 L 0 95 Z " fill="rgb(255,255,255)"/><path d=" M 180 95 L 190 85 L 220 85 L 230 95 L 220 105 L 190 105 L 180 95 Z " fill="rgb(255,255,255)"/><path d=" M 80 95 L 90 85 L 100 95 L 90 105 L 80 95 Z " fill="rgb(255,255,255)"/><path d=" M 130 95 L 140 85 L 150 95 L 140 105 L 130 95 Z " fill="rgb(255,255,255)"/></g></svg>