<?xml version="1.0" standalone="no"?><!-- Generator: Gravit.io --><svg xmlns="http://www.w3.org/2000/svg" xmlns:xlink="http://www.w3.org/1999/xlink" style="isolation:isolate" viewBox="0 0 260 200" width="260" height="200"><defs><clipPath id="_clipPath_FXUrd3kPBeoxKsGyy0r5aiWIlr9WCjJS"><rect width="260" height="200"/></clipPath></defs><g clip-path="url(#_clipPath_FXUrd3kPBeoxKsGyy0r5aiWIlr9WCjJS)"><rect width="260" height="200" style="fill:rgb(221,221,221)"/><path d=" M 240 20 L 220 20 L 220 180 L 240 180 L 240 20 Z " fill="rgb(255,255,255)"/><path d=" M 210 30 L 30 70 L 30 130 L 210 170 L 210 30 Z " fill="rgb(255,255,255)"/><path d=" M 20 60 L 0 60 L 0 140 L 20 140 L 20 60 Z " fill="rgb(255,255,255)"/><path d=" M 40 170 L 40 140 L 55 140 L 55 170 L 55 170 C 55 178.279 61.721 185 70 185 L 70 185 L 100 185 L 100 185 C 108.279 185 115 178.279 115 170 L 115 170 L 115 160 L 130 160 L 130 170 L 130 170 C 130 186.557 116.557 200 100 200 L 100 200 L 70 200 L 70 200 C 53.443 200 40 186.557 40 170 L 40 170 Z " fill="rgb(255,255,255)"/></g></svg>