<?xml version="1.0" standalone="no"?><!-- Generator: Gravit.io --><svg xmlns="http://www.w3.org/2000/svg" xmlns:xlink="http://www.w3.org/1999/xlink" style="isolation:isolate" viewBox="0 0 280 200" width="280" height="200"><defs><clipPath id="_clipPath_lBidbeGkPihD9vbgem6g5fxzVUTE4ngl"><rect width="280" height="200"/></clipPath></defs><g clip-path="url(#_clipPath_lBidbeGkPihD9vbgem6g5fxzVUTE4ngl)"><rect width="280" height="200" style="fill:rgb(206,206,206)"/><g style="isolation:isolate"><g style="isolation:isolate"><path d=" M 80 80 L 80 90 L 130 90 L 130 80 L 80 80 Z " fill="rgb(255,255,255)"/><path d=" M 110 60 L 100 60 L 100 110 L 110 110 L 110 60 Z " fill="rgb(255,255,255)"/><path d=" M 210 70 L 210 80 L 250 80 L 250 70 L 210 70 Z " fill="rgb(255,255,255)"/><path d=" M 210 90 L 210 100 L 250 100 L 250 90 L 210 90 Z " fill="rgb(255,255,255)"/></g><path d=" M 180 50 L 170 50 L 150 70 L 160 80 L 170 70 L 170 110 L 150 110 L 150 120 L 200 120 L 200 110 L 180 110 L 180 50 Z " fill="rgb(255,255,255)"/><path d=" M 50 50 L 40 50 L 20 70 L 30 80 L 40 70 L 40 110 L 20 110 L 20 120 L 70 120 L 70 110 L 50 110 L 50 50 Z " fill="rgb(255,255,255)"/><g style="isolation:isolate"><path d=" M 0 10 L 280 10 L 280 20 L 0 20 L 0 10 Z " fill="rgb(255,255,255)"/><path d=" M 0 170 L 280 170 L 280 190 L 0 190 L 0 170 Z " fill="rgb(255,255,255)"/><path d=" M 10 10 L 10 180 L 0 180 L 0 10 L 10 10 Z " fill="rgb(255,255,255)"/><path d=" M 280 10 L 280 180 L 270 180 L 270 10 L 280 10 Z " fill="rgb(255,255,255)"/><path d=" M 150 170 L 210 170 L 210 160 C 210 154.481 205.519 150 200 150 L 160 150 C 154.481 150 150 154.481 150 160 L 150 170 Z " fill="rgb(255,255,255)"/></g></g></g></svg>