<?xml version="1.0" standalone="no"?><!-- Generator: Gravit.io --><svg xmlns="http://www.w3.org/2000/svg" xmlns:xlink="http://www.w3.org/1999/xlink" style="isolation:isolate" viewBox="0 0 270 280" width="270" height="280"><defs><clipPath id="_clipPath_fkjbC5NwBPGCqoUel3dX9oxjrA8aUwW9"><rect width="270" height="280"/></clipPath></defs><g clip-path="url(#_clipPath_fkjbC5NwBPGCqoUel3dX9oxjrA8aUwW9)"><rect width="270" height="280" style="fill:rgb(185,185,185)"/><g style="isolation:isolate"><path d=" M 54.444 96.667 C 66 117.5 153 113 176.667 84.444 C 181.643 97.283 155.478 131.912 150.832 134.34 C 144.854 137.464 145.475 140.142 152.218 140.317 C 182.292 141.098 225.969 106.52 225.556 84.444 C 231.248 100.521 245.708 134.188 240 160 C 255.5 95.5 245.625 47.625 200 50 C 182.5 -39.5 -42 15.5 50 160 C 42.834 138.68 47.294 106.791 54.444 96.667 Z " fill="rgb(255,255,255)"/><path d=" M 110 270 L 20 280 C 78.5 195 7.5 178.5 30 80 L 60 90 C 57.728 119.305 54 223.333 110 240 L 110 270 Z " fill="rgb(255,255,255)"/><path d=" M 170 270 L 220 280 C 267.5 223 247 89 240 80 L 210 80 C 212.272 109.305 229 221 170 240 L 170 270 Z " fill="rgb(255,255,255)"/></g></g></svg>