<?xml version="1.0" standalone="no"?><!-- Generator: Gravit.io --><svg xmlns="http://www.w3.org/2000/svg" xmlns:xlink="http://www.w3.org/1999/xlink" style="isolation:isolate" viewBox="0 0 300 200" width="300" height="200"><defs><clipPath id="_clipPath_q3M6SR8pb6SnVMmHCfMY773wkn3k0LFN"><rect width="300" height="200"/></clipPath></defs><g clip-path="url(#_clipPath_q3M6SR8pb6SnVMmHCfMY773wkn3k0LFN)"><rect width="300" height="200" style="fill:rgb(185,185,185)"/><circle vector-effect="non-scaling-stroke" cx="150" cy="60.000000000000014" r="40.00000000000001" fill="rgb(235,235,235)"/><circle vector-effect="non-scaling-stroke" cx="250" cy="80" r="30" fill="rgb(235,235,235)"/><circle vector-effect="non-scaling-stroke" cx="50" cy="80" r="30" fill="rgb(235,235,235)"/><path d=" M 90 180 L 90 150 C 90 127.923 107.923 110 130 110 L 170 110 C 192.077 110 210 127.923 210 150 L 210 180 L 90 180 Z " fill="rgb(255,255,255)"/><path d=" M 230 170 Q 230 127 220.103 121.674 C 223.202 120.59 226.533 120 230 120 L 270 120 C 286.557 120 300 133.443 300 150 L 300 170 L 230 170 Z " fill="rgb(255,255,255)"/><path d=" M 70 170 Q 70 127 79.897 121.674 C 76.798 120.59 73.467 120 70 120 L 30 120 C 13.443 120 0 133.443 0 150 L 0 170 L 70 170 Z " fill="rgb(255,255,255)"/></g></svg>