<?xml version="1.0" standalone="no"?><!-- Generator: Gravit.io --><svg xmlns="http://www.w3.org/2000/svg" xmlns:xlink="http://www.w3.org/1999/xlink" style="isolation:isolate" viewBox="0 0 310 330" width="310" height="330"><defs><clipPath id="_clipPath_cqyz7fWvMlfcLwzC6pQSaEpdCGoNntDH"><rect width="310" height="330"/></clipPath></defs><g clip-path="url(#_clipPath_cqyz7fWvMlfcLwzC6pQSaEpdCGoNntDH)"><rect width="310" height="330" style="fill:rgb(187,187,187)"/><g style="isolation:isolate"><path d=" M 20 230 L 30 240 L 50 240 L 60 230 L 60 220 L 260 220 L 260 230 L 270 240 L 290 240 L 300 230 L 300 190 L 20 190 L 20 230 Z " fill="rgb(255,255,255)"/><path d=" M 20 270 L 30 280 L 50 280 L 60 270 L 60 260 L 260 260 L 260 270 L 270 280 L 290 280 L 300 270 L 300 230 L 20 230 L 20 270 Z " fill="rgb(255,255,255)"/><path d=" M 300 270 L 300 300 L 20 300 L 20 270 L 300 270 Z " fill="rgb(255,255,255)"/><g style="isolation:isolate"><path d=" M 20 140 L 300 140 L 300 130 L 20 130 L 20 140 Z " fill="rgb(255,255,255)"/><path d=" M 300 140 L 300 180 L 240 180 L 280 140 L 300 140 L 300 140 Z " fill="rgb(255,255,255)"/><path d=" M 240 140 L 200 180 L 160 180 L 200 140 L 240 140 L 240 140 Z " fill="rgb(255,255,255)"/><path d=" M 160 140 L 120 180 L 80 180 L 120 140 L 160 140 L 160 140 Z " fill="rgb(255,255,255)"/><path d=" M 80 140 L 40 180 L 20 180 L 20 140 L 80 140 Z " fill="rgb(255,255,255)"/></g><g style="isolation:isolate"><path d=" M 75.367 104.812 L 26.378 76.527 L 7.059 81.704 L 17.412 120.341 L 75.367 104.812 Z " fill="rgb(255,255,255)"/><path d=" M 5.765 76.874 L 276.224 4.405 L 278.812 14.064 L 8.353 86.533 L 5.765 76.874 Z " fill="rgb(255,255,255)"/><path d=" M 17.412 120.341 L 287.871 47.871 L 290.459 57.531 L 20 130 L 17.412 120.341 Z " fill="rgb(255,255,255)"/><path d=" M 287.871 47.871 L 277.518 9.234 L 219.563 24.764 L 268.553 53.048 L 287.871 47.871 L 287.871 47.871 Z " fill="rgb(255,255,255)"/><path d=" M 229.915 63.401 L 180.926 35.116 L 142.289 45.469 L 191.278 73.753 L 229.915 63.401 L 229.915 63.401 Z " fill="rgb(255,255,255)"/><path d=" M 152.641 84.106 L 103.652 55.822 L 65.015 66.175 L 114.004 94.459 L 152.641 84.106 L 152.641 84.106 Z " fill="rgb(255,255,255)"/></g></g></g></svg>