<?xml version="1.0" standalone="no"?><!-- Generator: Gravit.io --><svg xmlns="http://www.w3.org/2000/svg" xmlns:xlink="http://www.w3.org/1999/xlink" style="isolation:isolate" viewBox="0 0 340 260" width="340" height="260"><defs><clipPath id="_clipPath_Yodh5FW2kXL8TJ1gcrexY4apVMJQIIXk"><rect width="340" height="260"/></clipPath></defs><g clip-path="url(#_clipPath_Yodh5FW2kXL8TJ1gcrexY4apVMJQIIXk)"><rect width="340" height="260" style="fill:rgb(185,185,185)"/><g style="isolation:isolate"><path d=" M 90 20 L 90 150 L 100 160 L 110 160 L 120 150 L 120 130 L 170 130 L 170 150 L 120 150 L 90 150 L 90 220 L 150 220 L 150 190 L 230 110 L 230 80 L 200 110 L 120 110 L 120 90 L 200 90 L 200 110 L 220 100 L 230 80 L 230 70 L 200 70 L 120 70 L 120 50 L 200 50 L 200 70 L 210 80 L 220 80 L 230 70 L 230 20 L 90 20 Z " fill="rgb(255,255,255)"/><path d=" M 70 40 L 50 60 L 50 260 L 190 260 L 210 240 L 70 240 L 70 40 Z " fill="rgb(255,255,255)"/><path d=" M 210 150 L 280 80 L 310 110 L 240 180 L 210 150 Z " fill="rgb(255,255,255)"/><path d=" M 290 70 L 302.929 57.071 C 306.832 53.168 313.168 53.168 317.071 57.071 L 332.929 72.929 C 336.832 76.832 336.832 83.168 332.929 87.071 L 320 100 L 290 70 Z " fill="rgb(255,255,255)"/><path d=" M 230 190 L 200 160 L 180 200 L 180 200 C 180 205.519 184.481 210 190 210 L 190 210 L 230 190 Z " fill="rgb(255,255,255)"/></g></g></svg>