<?xml version="1.0" standalone="no"?><!-- Generator: Gravit.io --><svg xmlns="http://www.w3.org/2000/svg" xmlns:xlink="http://www.w3.org/1999/xlink" style="isolation:isolate" viewBox="0 0 280 210" width="280" height="210"><defs><clipPath id="_clipPath_HOgkn5v3WTiESl8mU4mIrBHpP4cE7W39"><rect width="280" height="210"/></clipPath></defs><g clip-path="url(#_clipPath_HOgkn5v3WTiESl8mU4mIrBHpP4cE7W39)"><rect width="280" height="210" style="fill:rgb(185,185,185)"/><circle vector-effect="non-scaling-stroke" cx="105.00000000000003" cy="35" r="35.00000000000006" fill="rgb(235,235,235)"/><path d=" M 80 80 L 130 80 C 141.038 80 150 88.962 150 100 L 150 210 L 60 210 L 60 100 C 60 88.962 68.962 80 80 80 Z " fill="rgb(235,235,235)"/><path d=" M 130 80 L 120 80 L 150 120 L 177.506 154.383 C 184.402 163.002 194.971 162.543 201.094 153.359 L 230 110 L 210 90 L 194.472 121.056 C 192.004 125.992 187.201 126.501 183.753 122.191 L 162.494 95.617 C 155.598 86.998 141.038 80 130 80 Z " fill="rgb(255,255,255)"/><path d=" M 230 90 L 280 10 L 270 0 L 220 80 L 230 90 Z " fill="rgb(255,255,255)"/><path d=" M 50 120 L 60 120 L 80 80 L 70 80 C 47.923 80 30 97.923 30 120 L 30 170 C 30 181.038 34.008 198.016 38.944 207.889 L 40 210 L 50 200 L 50 120 Z " fill="rgb(255,255,255)"/></g></svg>