<?xml version="1.0" standalone="no"?><!-- Generator: Gravit.io --><svg xmlns="http://www.w3.org/2000/svg" xmlns:xlink="http://www.w3.org/1999/xlink" style="isolation:isolate" viewBox="0 0 260 310" width="260" height="310"><defs><clipPath id="_clipPath_612LkekpaoXMd5GxHMMb34x3VkQg02mZ"><rect width="260" height="310"/></clipPath></defs><g clip-path="url(#_clipPath_612LkekpaoXMd5GxHMMb34x3VkQg02mZ)"><rect width="260" height="310" style="fill:rgb(185,185,185)"/><g style="isolation:isolate"><path d=" M 210 100 L 210 100 L 175 100 L 175 100 C 175 80.683 154.836 65 130 65 L 130 65 C 105.164 65 85 80.086 85 98.667 Q 85 98.667 85 100 C 85 140.5 210 140 210 210 Q 210 212.333 210 212.333 C 210 249.68 174.153 280 130 280 L 130 280 C 85.847 280 50 248.634 50 210 L 50 210 L 85 210 L 85 210 C 85 229.317 105.164 245 130 245 L 130 245 C 154.836 245 175 230.661 175 213 Q 175 213 175 210 C 175 169.5 50 170.5 50 100 Q 50 98.667 50 98.667 C 50 60.769 85.847 30 130 30 L 130 30 C 174.153 30 210 61.366 210 100 Z " fill="rgb(255,255,255)"/><path d=" M 110 0 L 150 0 L 150 40 L 110 40 L 110 0 Z " fill="rgb(255,255,255)"/><path d=" M 110 270 L 150 270 L 150 310 L 110 310 L 110 270 Z " fill="rgb(255,255,255)"/></g></g></svg>