<?xml version="1.0" standalone="no"?><!-- Generator: Gravit.io --><svg xmlns="http://www.w3.org/2000/svg" xmlns:xlink="http://www.w3.org/1999/xlink" style="isolation:isolate" viewBox="0 0 280 260" width="280" height="260"><defs><clipPath id="_clipPath_OvO7DAllaHiGJME1l85vefOqcMQES3Wl"><rect width="280" height="260"/></clipPath></defs><g clip-path="url(#_clipPath_OvO7DAllaHiGJME1l85vefOqcMQES3Wl)"><rect width="280" height="260" style="fill:rgb(185,185,185)"/><path d=" M 50 70 L 10 150 L 20 150 L 60 70 L 50 70 Z " fill="rgb(255,255,255)"/><path d=" M 220 70 L 180 150 L 190 150 L 230 70 L 220 70 Z " fill="rgb(255,255,255)"/><path d=" M 60 70 L 100 150 L 90 150 L 50 70 L 60 70 Z " fill="rgb(255,255,255)"/><path d=" M 230 70 L 270 150 L 260 150 L 220 70 L 230 70 Z " fill="rgb(255,255,255)"/><path d=" M 0 150 L 110 150 L 110 150 C 79.645 188.634 30.355 188.634 0 150 L 0 150 Z " fill="rgb(255,255,255)"/><path d=" M 170 150 L 280 150 L 280 150 C 249.645 188.634 200.355 188.634 170 150 L 170 150 Z " fill="rgb(255,255,255)"/><path d=" M 70 260 L 70 250 C 70 244.481 74.481 240 80 240 L 100 240 L 100 240 C 100 223.443 113.443 210 130 210 L 130 210 L 130 80 L 130 80 C 124.481 80 120 75.519 120 70 L 120 70 L 160 70 L 160 70 C 160 75.519 155.519 80 150 80 L 150 80 L 150 210 L 150 210 C 166.557 210 180 223.443 180 240 L 180 240 L 200 240 C 205.519 240 210 244.481 210 250 L 210 260 L 70 260 Z " fill="rgb(255,255,255)"/><circle vector-effect="non-scaling-stroke" cx="140" cy="40" r="20" fill="rgb(235,235,235)"/><path d=" M 140 0 L 127.071 12.929 C 123.168 16.832 124.008 22.004 128.944 24.472 L 140 30 L 151.056 24.472 C 155.992 22.004 156.832 16.832 152.929 12.929 L 140 0 Z " fill="rgb(255,255,255)"/><circle vector-effect="non-scaling-stroke" cx="55" cy="45" r="15" fill="rgb(255,255,255)"/><circle vector-effect="non-scaling-stroke" cx="225" cy="45" r="15" fill="rgb(255,255,255)"/><path d=" M 60 40 C 81.167 24.5 104.51 21.177 130 30 L 130 40 C 107 32.833 83.677 36.177 60 50 L 60 40 Z " fill="rgb(255,255,255)"/><path d=" M 220 40 C 198.833 24.5 175.49 21.177 150 30 L 150 40 C 173 32.833 196.323 36.177 220 50 L 220 40 Z " fill="rgb(255,255,255)"/></g></svg>