<?xml version="1.0" standalone="no"?><!-- Generator: Gravit.io --><svg xmlns="http://www.w3.org/2000/svg" xmlns:xlink="http://www.w3.org/1999/xlink" style="isolation:isolate" viewBox="0 0 290 260" width="290" height="260"><defs><clipPath id="_clipPath_rDhWhCh6J3LaHjy4MK1yiq5KwOFO2vRl"><rect width="290" height="260"/></clipPath></defs><g clip-path="url(#_clipPath_rDhWhCh6J3LaHjy4MK1yiq5KwOFO2vRl)"><rect width="290" height="260" style="fill:rgb(185,185,185)"/><path d=" M 110 20 L 110 70 L 180 70 L 180 20 L 110 20 Z " fill="rgb(255,255,255)"/><path d=" M 110 180 L 110 230 L 180 230 L 180 180 L 110 180 Z " fill="rgb(255,255,255)"/><path d=" M 220 180 L 220 230 L 290 230 L 290 180 L 220 180 Z " fill="rgb(255,255,255)"/><path d=" M 0 180 L 0 230 L 70 230 L 70 180 L 0 180 Z " fill="rgb(255,255,255)"/><path d=" M -100 340 L -100 370 L -50 370 L -50 340 L -100 340 Z " fill="rgb(255,255,255)"/><path d=" M 140 60 L 140 120 L 30 120 L 30 190 L 40 190 L 40 130 L 140 130 L 140 190 L 150 190 L 150 130 L 250 130 L 250 190 L 260 190 L 260 120 L 150 120 L 150 60 L 140 60 Z " fill="rgb(255,255,255)"/></g></svg>