<?xml version="1.0" standalone="no"?><!-- Generator: Gravit.io --><svg xmlns="http://www.w3.org/2000/svg" xmlns:xlink="http://www.w3.org/1999/xlink" style="isolation:isolate" viewBox="0 0 220 280" width="220" height="280"><defs><clipPath id="_clipPath_aCv4xgyBz08hMNdH8ftViFmAAby63iox"><rect width="220" height="280"/></clipPath></defs><g clip-path="url(#_clipPath_aCv4xgyBz08hMNdH8ftViFmAAby63iox)"><rect width="220" height="280" style="fill:rgb(185,185,185)"/><path d=" M 220 0 L 50 70 L 50 200 L 40 200 C 17.923 200 0 217.923 0 240 L 0 240 C 0 262.077 17.923 280 40 280 L 40 280 C 62.077 280 80 262.077 80 240 L 80 90 L 190 45 L 190 160 L 180 160 C 157.923 160 140 177.923 140 200 L 140 200 C 140 222.077 157.923 240 180 240 L 180 240 C 202.077 240 220 222.077 220 200 L 220 0 Z " fill="rgb(255,255,255)"/></g></svg>