<?xml version="1.0" standalone="no"?><!-- Generator: Gravit.io --><svg xmlns="http://www.w3.org/2000/svg" xmlns:xlink="http://www.w3.org/1999/xlink" style="isolation:isolate" viewBox="0 0 340 290" width="340" height="290"><defs><clipPath id="_clipPath_r04vg8YufEo7hjqAi8e9fN5MuoIh3STE"><rect width="340" height="290"/></clipPath></defs><g clip-path="url(#_clipPath_r04vg8YufEo7hjqAi8e9fN5MuoIh3STE)"><rect width="340" height="290" style="fill:rgb(185,185,185)"/><path d=" M 340 80 L 300 40 L 190 40 L 190 60 L 290 60 L 290 70 L 210 70 L 210 50 L 200 50 L 190 60 L 190 120 L 300 120 L 340 80 Z " fill="rgb(255,255,255)"/><path d=" M 0 110 L 40 70 L 150 70 L 150 90 L 50 90 L 50 100 L 130 100 L 130 80 L 140 80 L 150 90 L 150 150 L 40 150 L 0 110 Z " fill="rgb(255,255,255)"/><path d=" M 160 20 L 180 20 L 180 290 L 160 290 L 160 20 Z " fill="rgb(255,255,255)"/></g></svg>