<?xml version="1.0" standalone="no"?><!-- Generator: Gravit.io --><svg xmlns="http://www.w3.org/2000/svg" xmlns:xlink="http://www.w3.org/1999/xlink" style="isolation:isolate" viewBox="0 0 200 290" width="200" height="290"><defs><clipPath id="_clipPath_I2diasP1Y5y35OC8g25HyrsYC7RBwpSL"><rect width="200" height="290"/></clipPath></defs><g clip-path="url(#_clipPath_I2diasP1Y5y35OC8g25HyrsYC7RBwpSL)"><rect width="200" height="290" style="fill:rgb(91,91,91)"/><g style="isolation:isolate"><path d=" M 180 90 L 180 220 L 180 230 L 170 230 L 160 220 L 160 120 L 40 120 L 40 140 L 160 140 L 170 150 L 160 160 L 40 160 L 40 180 L 160 180 L 170 190 L 160 200 L 40 200 L 40 220 L 180 220 L 180 270 L 20 270 L 20 90 L 20 70 L 40 70 L 40 90 L 160 90 L 160 70 L 180 70 L 180 90 L 180 90 Z " fill="rgb(255,255,255)"/><path d=" M 150 80 L 150 50 L 50 50 L 50 80 L 150 80 L 150 80 Z " fill="rgb(255,255,255)"/><path d=" M 100 190 L 100 230 L 170 230 L 170 190 L 100 190 Z " fill="rgb(255,255,255)"/><path d=" M 100 60 C 83.443 60 70 46.557 70 30 C 70 13.443 83.443 0 100 0 L 100 15 C 91.721 15 85 21.721 85 30 C 85 38.279 91.721 45 100 45 L 100 60 Z " fill="rgb(235,235,235)"/><path d=" M 90 50 L 100 60 C 116.557 60 130 46.557 130 30 C 130 13.443 116.557 0 100 0 L 90 10 L 100 15 C 108.279 15 115 21.721 115 30 C 115 38.279 108.279 45 100 45 L 90 50 Z " fill="rgb(235,235,235)"/></g></g></svg>