<?xml version="1.0" standalone="no"?><!-- Generator: Gravit.io --><svg xmlns="http://www.w3.org/2000/svg" xmlns:xlink="http://www.w3.org/1999/xlink" style="isolation:isolate" viewBox="0 0 280 260" width="280" height="260"><defs><clipPath id="_clipPath_mybNBBWLwlg3GmJPIOn8Dm2ODe6O8Poo"><rect width="280" height="260"/></clipPath></defs><g clip-path="url(#_clipPath_mybNBBWLwlg3GmJPIOn8Dm2ODe6O8Poo)"><rect width="280" height="260" style="fill:rgb(185,185,185)"/><g style="isolation:isolate"><path d=" M 0 130 L 0 150 L 50 150 L 50 130 L 0 130 Z " fill="rgb(255,255,255)"/><path d=" M 200 130 L 200 150 L 280 150 L 280 130 L 200 130 Z " fill="rgb(255,255,255)"/><path d=" M 30 150 L 50 40 L 70 40 L 50 150 L 30 150 Z " fill="rgb(255,255,255)"/><path d=" M 50 40 L 80 240 L 100 240 L 70 40 L 50 40 Z " fill="rgb(255,255,255)"/><path d=" M 110 10 L 80 240 L 100 240 L 130 10 L 110 10 Z " fill="rgb(255,255,255)"/><path d=" M 130 10 L 150 190 L 130 190 L 110 10 L 130 10 Z " fill="rgb(255,255,255)"/><path d=" M 160 70 L 130 190 L 150 190 L 180 70 L 160 70 Z " fill="rgb(255,255,255)"/><path d=" M 180 70 L 200 180 L 180 180 L 160 70 L 180 70 Z " fill="rgb(255,255,255)"/><path d=" M 200 130 L 180 180 L 200 180 L 220 130 L 200 130 Z " fill="rgb(255,255,255)"/></g></g></svg>