<?xml version="1.0" standalone="no"?><!-- Generator: Gravit.io --><svg xmlns="http://www.w3.org/2000/svg" xmlns:xlink="http://www.w3.org/1999/xlink" style="isolation:isolate" viewBox="0 0 320 270" width="320" height="270"><defs><clipPath id="_clipPath_JASphaEOmIpkK212XaYz0Dda7XV69VUp"><rect width="320" height="270"/></clipPath></defs><g clip-path="url(#_clipPath_JASphaEOmIpkK212XaYz0Dda7XV69VUp)"><rect width="320" height="270" style="fill:rgb(185,185,185)"/><g style="isolation:isolate"><path d=" M 310 240 L 200 240 L 70 110 L 153.31 17.433 C 157.002 13.331 161.392 14.259 163.106 19.505 C 169.086 37.806 195.772 54.492 210.249 57.783 C 215.631 59.007 219.818 64.477 219.593 69.992 C 218.068 107.472 218.078 144.149 240 170 L 270 170 C 292.077 170 310 187.923 310 210 L 310 240 Z " fill="rgb(255,255,255)"/><g style="isolation:isolate"><path d=" M 0 10 L 120 10 L 110 20 L 0 20 L 0 10 Z " fill="rgb(255,255,255)"/><path d=" M 0 50 L 80 50 L 70 60 L 0 60 L 0 50 Z " fill="rgb(255,255,255)"/><path d=" M 0 90 L 50 90 L 40 100 L 0 100 L 0 90 Z " fill="rgb(255,255,255)"/></g></g></g></svg>