<?xml version="1.0" standalone="no"?><!-- Generator: Gravit.io --><svg xmlns="http://www.w3.org/2000/svg" xmlns:xlink="http://www.w3.org/1999/xlink" style="isolation:isolate" viewBox="0 0 320 260" width="320" height="260"><defs><clipPath id="_clipPath_1P6VakxshvDqpQcuIiOTdQWBWI5aRc0T"><rect width="320" height="260"/></clipPath></defs><g clip-path="url(#_clipPath_1P6VakxshvDqpQcuIiOTdQWBWI5aRc0T)"><rect width="320" height="260" style="fill:rgb(185,185,185)"/><g style="isolation:isolate"><path d=" M 90 40 L 110 40 L 40 210 L 50 210 L 60 220 L 0 220 L 10 210 L 20 210 L 90 40 Z " fill="rgb(255,255,255)"/><path d=" M 120 40 L 90 40 L 160 210 L 150 210 L 140 220 L 210 220 L 200 210 L 190 210 L 120 40 Z " fill="rgb(255,255,255)"/><path d=" M 60 150 L 140 150 L 150 160 L 50 160 L 60 150 Z " fill="rgb(255,255,255)"/><path d=" M 200 90 L 200 150 L 250 150 L 250 200 L 320 120 L 250 40 L 250 90 L 200 90 Z " fill="rgb(255,255,255)"/></g></g></svg>