<?xml version="1.0" standalone="no"?><!-- Generator: Gravit.io --><svg xmlns="http://www.w3.org/2000/svg" xmlns:xlink="http://www.w3.org/1999/xlink" style="isolation:isolate" viewBox="0 0 240 270" width="240" height="270"><defs><clipPath id="_clipPath_adtnrSh0b4k2GsznmL8UkNgyKHeeI6Y3"><rect width="240" height="270"/></clipPath></defs><g clip-path="url(#_clipPath_adtnrSh0b4k2GsznmL8UkNgyKHeeI6Y3)"><rect width="240" height="270" style="fill:rgb(185,185,185)"/><path d=" M 118.356 41.644 C 119.432 45.918 120 50.393 120 55 C 120 85.355 95.355 110 65 110 C 60.393 110 55.918 109.432 51.644 108.356 C 82.326 97.23 104.573 75.002 118.356 41.644 L 118.356 41.644 Z " fill="rgb(255,255,255)"/><path d=" M 108.554 21.446 C 98.502 8.402 82.724 0 65 0 C 34.645 0 10 24.645 10 55 C 10 72.724 18.402 88.502 31.446 98.554 C 67.815 83.518 93.528 57.825 108.554 21.446 L 108.554 21.446 Z " fill="rgb(255,255,255)"/><path d=" M 90 120 C 111.536 109.98 118.252 103.363 130 80 L 220 190 L 200 210 L 90 120 Z " fill="rgb(255,255,255)"/><path d=" M 210.23 210 L 220.23 200 C 258.466 230.33 237.734 295.627 174.396 251.07 C 150.021 233.922 107.455 228.172 79.403 238.237 C 71.108 241.213 37.785 257.89 30.23 270 L 20.23 260 C 29.867 246.136 66.543 227.812 77.603 223.851 C 106.649 213.447 151.048 218.93 176.69 236.088 C 231.218 272.575 237.091 229.576 210.23 210 Z " fill="rgb(255,255,255)"/></g></svg>