<?xml version="1.0" standalone="no"?><!-- Generator: Gravit.io --><svg xmlns="http://www.w3.org/2000/svg" xmlns:xlink="http://www.w3.org/1999/xlink" style="isolation:isolate" viewBox="0 0 260 290" width="260" height="290"><defs><clipPath id="_clipPath_Q9Uw5Vf9t8aWT5TofIRuiEP8MdeHCTRS"><rect width="260" height="290"/></clipPath></defs><g clip-path="url(#_clipPath_Q9Uw5Vf9t8aWT5TofIRuiEP8MdeHCTRS)"><rect width="260" height="290" style="fill:rgb(185,185,185)"/><path d=" M 60 230 Q 39.369 122.62 70 90 Q 70.398 115.857 90 130 Q 75.058 93.571 100 70 C 136.2 35.789 160.384 62.853 230 0 C 240.741 27.051 237.736 100.905 190 120 Q 197.558 123.978 230 120 Q 177.736 182.044 130 190 Q 140.343 191.591 170 190 Q 135.333 213.667 100 210 Q 78.519 244.211 60 290 L 50 270 Q 147.037 105.802 190 70 Q 125.954 99.437 60 230 Z " fill="rgb(255,255,255)"/></g></svg>