<?xml version="1.0" standalone="no"?><!-- Generator: Gravit.io --><svg xmlns="http://www.w3.org/2000/svg" xmlns:xlink="http://www.w3.org/1999/xlink" style="isolation:isolate" viewBox="0 0 300 280" width="300" height="280"><defs><clipPath id="_clipPath_9jfG66qIWmjdrUuCd9E00sumlr49FofM"><rect width="300" height="280"/></clipPath></defs><g clip-path="url(#_clipPath_9jfG66qIWmjdrUuCd9E00sumlr49FofM)"><rect width="300" height="280" style="fill:rgb(185,185,185)"/><g style="isolation:isolate"><path d=" M 90 100 L 90 130 L 140 130 L 140 270 L 160 270 L 160 130 L 210 130 L 210 100 L 90 100 Z " fill="rgb(255,255,255)"/><path d=" M 35 80 L 25 80 C 11.202 80 0 91.202 0 105 L 0 180 C 0 191.038 8.962 200 20 200 L 70 200 L 70 260 C 70 265.519 74.481 270 80 270 L 100 270 C 105.519 270 110 265.519 110 260 L 110 190 C 110 178.962 101.038 170 90 170 L 60 170 L 60 105 C 60 91.202 48.798 80 35 80 Z " fill="rgb(255,255,255)"/><path d=" M 265 80 L 275 80 C 288.798 80 300 91.202 300 105 L 300 180 C 300 191.038 291.038 200 280 200 L 230 200 L 230 260 C 230 265.519 225.519 270 220 270 L 200 270 C 194.481 270 190 265.519 190 260 L 190 190 C 190 178.962 198.962 170 210 170 L 240 170 L 240 105 C 240 91.202 251.202 80 265 80 Z " fill="rgb(255,255,255)"/><circle vector-effect="non-scaling-stroke" cx="30" cy="40" r="30" fill="rgb(235,235,235)"/><circle vector-effect="non-scaling-stroke" cx="270" cy="40" r="29.999999999999986" fill="rgb(235,235,235)"/></g></g></svg>