<?xml version="1.0" standalone="no"?><!-- Generator: Gravit.io --><svg xmlns="http://www.w3.org/2000/svg" xmlns:xlink="http://www.w3.org/1999/xlink" style="isolation:isolate" viewBox="0 0 250 250" width="250" height="250"><defs><clipPath id="_clipPath_9u4y7WGCezK85QO1YhJzLEXyWB8X3O9O"><rect width="250" height="250"/></clipPath></defs><g clip-path="url(#_clipPath_9u4y7WGCezK85QO1YhJzLEXyWB8X3O9O)"><rect width="250" height="250" style="fill:rgb(185,185,185)"/><g style="isolation:isolate"><path d=" M 0 60 L 0 10 L 160 10 L 160 60 L 130 70 L 110 60 L 110 40 L 50 40 L 50 60 L 30 70 L 0 60 L 0 60 Z " fill="rgb(255,255,255)"/><path d=" M 0 110 L 0 60 L 0 60 L 160 60 L 160 110 L 150 120 L 140 110 L 140 90 L 20 90 L 20 110 L 10 120 L 0 110 L 0 110 Z " fill="rgb(255,255,255)"/><path d=" M 0 150 L 0 110 L 0 110 L 160 110 L 160 130 L 160 150 L 150 160 L 140 150 L 140 130 L 20 130 L 20 150 L 10 160 L 0 150 L 0 150 Z " fill="rgb(255,255,255)"/><path d=" M 0 190 L 0 150 L 0 150 L 160 150 L 160 170 L 160 190 L 120 210 L 90 190 L 90 170 L 20 170 L 20 190 L 10 200 L 0 190 L 0 190 Z " fill="rgb(255,255,255)"/><path d=" M 0 240 L 0 190 L 0 190 L 160 190 L 160 240 L 0 240 L 0 240 Z " fill="rgb(255,255,255)"/></g><path d=" M 230 210 L 210 240 L 190 210 L 190 200 L 230 200 L 230 210 L 230 210 Z " fill="rgb(255,255,255)"/><path d=" M 190 50 L 190 20 C 190 14.481 194.481 10 200 10 L 220 10 C 225.519 10 230 14.481 230 20 L 230 30 L 230 30 C 241.038 30 250 38.962 250 50 L 250 50 L 250 110 L 240 110 L 240 50 L 230 50 L 190 50 L 190 50 Z " fill="rgb(255,255,255)"/><path d=" M 190 70 L 190 180 L 230 180 L 230 180 L 230 70 L 190 70 L 190 70 Z " fill="rgb(255,255,255)"/></g></svg>