<?xml version="1.0" standalone="no"?><!-- Generator: Gravit.io --><svg xmlns="http://www.w3.org/2000/svg" xmlns:xlink="http://www.w3.org/1999/xlink" style="isolation:isolate" viewBox="0 0 250 270" width="250" height="270"><defs><clipPath id="_clipPath_pvuRCJBWGAQqWptrcww4z2XXxC8xM6vy"><rect width="250" height="270"/></clipPath></defs><g clip-path="url(#_clipPath_pvuRCJBWGAQqWptrcww4z2XXxC8xM6vy)"><rect width="250" height="270" style="fill:rgb(185,185,185)"/><g style="isolation:isolate"><path d=" M 116.914 239.258 C 121.222 239.758 125.608 240 130.049 240 C 196.279 240 250 186.23 250 120 C 247.501 120 218.126 120 220 120 C 220 169.672 179.722 210 130.049 210 C 128.924 210 127.803 209.979 126.688 209.937 L 116.914 239.258 L 116.914 239.258 Z " fill="rgb(235,235,235)"/><path d=" M 20.909 70 C 39.886 28.704 81.625 0 130.015 0 C 196.245 0 250 53.77 250 120 C 247.501 120 218.126 120 220 120 C 220 70.328 179.687 30 130.015 30 C 98.847 30 71.358 45.878 55.229 70 L 20.909 70 L 20.909 70 Z " fill="rgb(235,235,235)"/></g><g style="isolation:isolate"><path d=" M 89.991 210 C 90.848 169.478 29.991 174.75 29.991 155 Q 29.991 131.5 79.991 150 L 84.991 125 Q 74.63 121.574 59.991 120 Q 59.991 112.629 59.991 100 L 29.991 100 L 29.991 120 C 10.316 122.755 0.07 136.741 -0.009 155 C -0.179 194.352 59.047 190.246 59.991 210 Q 61.203 235.34 9.991 220 L 4.991 245 Q 16.927 249.606 29.991 250 Q 29.991 257.371 29.991 270 L 59.991 270 L 59.991 250 C 77.463 244.884 89.44 236.05 89.991 210 Z " fill="rgb(255,255,255)"/><path d=" M 180 170 L 170 180 L 120 130 L 120 60 L 140 60 L 140 120 L 180 170 Z " fill="rgb(255,255,255)"/></g></g></svg>