<?xml version="1.0" standalone="no"?><!-- Generator: Gravit.io --><svg xmlns="http://www.w3.org/2000/svg" xmlns:xlink="http://www.w3.org/1999/xlink" style="isolation:isolate" viewBox="0 0 300 300" width="300" height="300"><defs><clipPath id="_clipPath_C7BYc20NJQIhDYyefbwtZutiqrhXta43"><rect width="300" height="300"/></clipPath></defs><g clip-path="url(#_clipPath_C7BYc20NJQIhDYyefbwtZutiqrhXta43)"><rect width="300" height="300" style="fill:rgb(185,185,185)"/><g style="isolation:isolate"><circle vector-effect="non-scaling-stroke" cx="150" cy="150" r="100" fill="rgb(235,235,235)"/><path d=" M 31.501 171.399 L 2.523 179.164 L 7.699 198.482 L 36.677 190.718 L 31.501 171.399 Z " fill="rgb(255,255,255)"/><path d=" M 268.499 128.601 L 297.477 120.836 L 292.301 101.518 L 263.323 109.282 L 268.499 128.601 Z " fill="rgb(255,255,255)"/><path d=" M 58.076 227.782 L 36.863 248.995 L 51.005 263.137 L 72.218 241.924 L 58.076 227.782 Z " fill="rgb(255,255,255)"/><path d=" M 241.924 72.218 L 263.137 51.005 L 248.995 36.863 L 227.782 58.076 L 241.924 72.218 Z " fill="rgb(255,255,255)"/><path d=" M 109.282 263.323 L 101.518 292.301 L 120.836 297.477 L 128.601 268.499 L 109.282 263.323 Z " fill="rgb(255,255,255)"/><path d=" M 190.718 36.677 L 198.482 7.699 L 179.164 2.523 L 171.399 31.501 L 190.718 36.677 Z " fill="rgb(255,255,255)"/><path d=" M 36.677 109.282 L 7.699 101.518 L 2.523 120.836 L 31.501 128.601 L 36.677 109.282 Z " fill="rgb(255,255,255)"/><path d=" M 263.323 190.718 L 292.301 198.482 L 297.477 179.164 L 268.499 171.399 L 263.323 190.718 Z " fill="rgb(255,255,255)"/><path d=" M 72.218 58.076 L 51.005 36.863 L 36.863 51.005 L 58.076 72.218 L 72.218 58.076 Z " fill="rgb(255,255,255)"/><path d=" M 227.782 241.924 L 248.995 263.137 L 263.137 248.995 L 241.924 227.782 L 227.782 241.924 Z " fill="rgb(255,255,255)"/><path d=" M 128.601 31.501 L 120.836 2.523 L 101.518 7.699 L 109.282 36.677 L 128.601 31.501 Z " fill="rgb(255,255,255)"/><path d=" M 171.399 268.499 L 179.164 297.477 L 198.482 292.301 L 190.718 263.323 L 171.399 268.499 Z " fill="rgb(255,255,255)"/></g></g></svg>