<?xml version="1.0" standalone="no"?><!-- Generator: Gravit.io --><svg xmlns="http://www.w3.org/2000/svg" xmlns:xlink="http://www.w3.org/1999/xlink" style="isolation:isolate" viewBox="0 0 300 300" width="300" height="300"><defs><clipPath id="_clipPath_1JiKOL7Suhic42CmiL4sbObRX8UccRwe"><rect width="300" height="300"/></clipPath></defs><g clip-path="url(#_clipPath_1JiKOL7Suhic42CmiL4sbObRX8UccRwe)"><rect width="300" height="300" style="fill:rgb(185,185,185)"/><g style="isolation:isolate"><path d=" M 286.631 66.574 L 265 55.202 L 243.369 66.574 L 247.5 42.487 L 230 25.429 L 254.184 21.915 L 265 0 L 275.816 21.915 L 300 25.429 L 282.5 42.487 L 286.631 66.574 Z " fill="rgb(235,235,235)"/><path d=" M 245.381 180 C 248.392 170.538 250 160.455 250 150 C 250 94.808 205.191 50 150 50 C 139.547 50 129.466 51.607 120 54.606 C 213 85.125 216.375 213.75 120 245.394 Q 139.547 250 150 250 C 160.453 250 170.534 248.393 180 245.394 L 180 220 L 220 220 L 220 180 L 245.381 180 Z " fill="rgb(235,235,235)"/><path d=" M 240 240 L 240 200 L 260 200 L 260 240 L 300 240 L 300 260 L 260 260 L 260 300 L 240 300 L 240 260 L 200 260 L 200 240 L 240 240 Z " fill="rgb(255,255,255)"/><path d=" M 56.631 90 L 35 78.628 L 13.369 90 L 17.5 65.913 L 0 48.855 L 24.184 45.341 L 35 23.426 L 45.816 45.341 L 70 48.855 L 52.5 65.913 L 56.631 90 Z " fill="rgb(235,235,235)"/><path d=" M 86.631 300 L 65 288.628 L 43.369 300 L 47.5 275.913 L 30 258.855 L 54.184 255.341 L 65 233.426 L 75.816 255.341 L 100 258.855 L 82.5 275.913 L 86.631 300 Z " fill="rgb(235,235,235)"/></g></g></svg>