<?xml version="1.0" standalone="no"?><!-- Generator: Gravit.io --><svg xmlns="http://www.w3.org/2000/svg" xmlns:xlink="http://www.w3.org/1999/xlink" style="isolation:isolate" viewBox="0 0 300 300" width="300" height="300"><defs><clipPath id="_clipPath_9llwWtsnBatmNnMOb3VhdZ5RimefjBGC"><rect width="300" height="300"/></clipPath></defs><g clip-path="url(#_clipPath_9llwWtsnBatmNnMOb3VhdZ5RimefjBGC)"><rect width="300" height="300" style="fill:rgb(185,185,185)"/><g style="isolation:isolate"><path d=" M 210 180 L 210 229.92 C 193.309 242.54 172.519 250 150 250 C 94.808 250 50 205.191 50 150 C 50 94.808 94.808 50 150 50 C 205.191 50 250 94.808 250 150 C 250 160.453 248.393 170.534 245.394 180 L 210 180 Z " fill="rgb(235,235,235)"/><path d=" M 31.501 171.399 L 2.523 179.164 L 7.699 198.482 L 36.677 190.718 L 31.501 171.399 Z " fill="rgb(255,255,255)"/><path d=" M 268.499 128.601 L 297.477 120.836 L 292.301 101.518 L 263.323 109.282 L 268.499 128.601 Z " fill="rgb(255,255,255)"/><path d=" M 58.076 227.782 L 36.863 248.995 L 51.005 263.137 L 72.218 241.924 L 58.076 227.782 Z " fill="rgb(255,255,255)"/><path d=" M 241.924 72.218 L 263.137 51.005 L 248.995 36.863 L 227.782 58.076 L 241.924 72.218 Z " fill="rgb(255,255,255)"/><path d=" M 109.282 263.323 L 101.518 292.301 L 120.836 297.477 L 128.601 268.499 L 109.282 263.323 Z " fill="rgb(255,255,255)"/><path d=" M 190.718 36.677 L 198.482 7.699 L 179.164 2.523 L 171.399 31.501 L 190.718 36.677 Z " fill="rgb(255,255,255)"/><path d=" M 36.677 109.282 L 7.699 101.518 L 2.523 120.836 L 31.501 128.601 L 36.677 109.282 Z " fill="rgb(255,255,255)"/><path d=" M 266.195 180 L 268.499 171.399 L 297.477 179.164 L 297.253 180 L 266.195 180 L 266.195 180 Z " fill="rgb(255,255,255)"/><path d=" M 72.218 58.076 L 51.005 36.863 L 36.863 51.005 L 58.076 72.218 L 72.218 58.076 Z " fill="rgb(255,255,255)"/><path d=" M 128.601 31.501 L 120.836 2.523 L 101.518 7.699 L 109.282 36.677 L 128.601 31.501 Z " fill="rgb(255,255,255)"/><path d=" M 171.399 268.499 L 179.164 297.477 L 198.482 292.301 L 190.718 263.323 L 171.399 268.499 Z " fill="rgb(255,255,255)"/><path d=" M 230 200 L 230 220 L 280 220 C 253.516 239.83 245.125 266.25 240 300 L 260 300 C 265 268.875 270.687 244.768 300 220 L 300 200 L 230 200 Z " fill="rgb(255,255,255)"/></g></g></svg>