<?xml version="1.0" standalone="no"?><!-- Generator: Gravit.io --><svg xmlns="http://www.w3.org/2000/svg" xmlns:xlink="http://www.w3.org/1999/xlink" style="isolation:isolate" viewBox="0 0 310 310" width="310" height="310"><defs><clipPath id="_clipPath_VksI9rnPMpGDL65cFhtyzMg29egoUxsx"><rect width="310" height="310"/></clipPath></defs><g clip-path="url(#_clipPath_VksI9rnPMpGDL65cFhtyzMg29egoUxsx)"><rect width="310" height="310" style="fill:rgb(185,185,185)"/><g style="isolation:isolate"><circle vector-effect="non-scaling-stroke" cx="155" cy="125" r="45" fill="rgb(235,235,235)"/><path d=" M 70 200 C 70 216.557 56.557 230 40 230 C 23.443 230 10 216.557 10 200 L 26.875 200 L 38.125 206 L 39.25 221.375 L 50.5 216.125 L 50.875 200 L 70 200 L 70 200 Z " fill="rgb(235,235,235)"/><path d=" M 70 200 C 70 183.443 56.557 170 40 170 C 23.443 170 10 183.443 10 200 L 24.625 200 L 25.75 186.5 L 41.875 185.75 L 46.75 188.375 L 45.625 179.75 L 34.75 180.125 L 32.125 175.625 L 46.75 174.125 L 58.75 181.25 L 62.875 189.5 L 61.75 198.125 L 49.75 195.875 L 49.75 200 L 70 200 L 70 200 Z " fill="rgb(235,235,235)"/><g style="isolation:isolate"><path d=" M 280 184.588 C 292.978 176.856 299.983 168.221 300 160 C 300.029 145.361 278.412 129.405 240 119.567 C 240 119.189 240 118.11 240 109.859 L 240 109.859 C 282.167 120.57 310 139.037 310 160 C 310 173.255 298.872 185.512 280 195.433 C 280 195.089 280 192.447 280 184.588 L 280 184.588 Z " fill="rgb(200,200,200)"/><path d=" M 220 204.617 C 201.086 208.003 179.252 210 155 210 L 155 220 L 155 220 C 178.213 220 200.24 218.021 220 214.461 L 220 204.617 L 220 204.617 Z " fill="rgb(200,200,200)"/><path d=" M 1.76 169.12 C 0.59 166.193 0 163.193 0 160.141 C 0 139.178 27.833 120.711 70 110 L 70 110 C 70 118.251 70 119.33 70 119.707 C 31.588 129.546 9.971 145.502 10 160.141 C 10.003 161.63 10.235 163.132 10.717 164.641 L 1.76 169.12 L 1.76 169.12 Z " fill="rgb(200,200,200)"/><path d=" M 84.13 213.481 C 105.352 217.744 129.458 220.141 155 220.141 L 155 220.141 L 155 210.141 C 129.205 210.141 106.146 207.881 86.482 204.072 L 84.13 213.481 L 84.13 213.481 Z " fill="rgb(200,200,200)"/></g><path d=" M 164.405 70.58 L 174.065 73.168 L 179.241 53.85 L 169.582 51.261 L 164.405 70.58 Z " fill="rgb(255,255,255)"/><path d=" M 190.355 82.574 L 197.426 89.645 L 211.569 75.503 L 204.497 68.431 L 190.355 82.574 Z " fill="rgb(255,255,255)"/><path d=" M 206.832 105.935 L 209.42 115.595 L 228.739 110.418 L 226.15 100.759 L 206.832 105.935 Z " fill="rgb(255,255,255)"/><path d=" M 209.42 134.405 L 206.832 144.065 L 226.15 149.241 L 228.739 139.582 L 209.42 134.405 Z " fill="rgb(255,255,255)"/><path d=" M 197.426 160.355 L 190.355 167.426 L 204.497 181.569 L 211.569 174.497 L 197.426 160.355 Z " fill="rgb(255,255,255)"/><path d=" M 174.065 176.832 L 164.405 179.42 L 169.582 198.739 L 179.241 196.15 L 174.065 176.832 Z " fill="rgb(255,255,255)"/><path d=" M 145.595 179.42 L 135.935 176.832 L 130.759 196.15 L 140.418 198.739 L 145.595 179.42 Z " fill="rgb(255,255,255)"/><path d=" M 119.645 167.426 L 112.574 160.355 L 98.431 174.497 L 105.503 181.569 L 119.645 167.426 Z " fill="rgb(255,255,255)"/><path d=" M 103.168 144.065 L 100.58 134.405 L 81.261 139.582 L 83.85 149.241 L 103.168 144.065 Z " fill="rgb(255,255,255)"/><path d=" M 100.58 115.595 L 103.168 105.935 L 83.85 100.759 L 81.261 110.418 L 100.58 115.595 Z " fill="rgb(255,255,255)"/><path d=" M 112.574 89.645 L 119.645 82.574 L 105.503 68.431 L 98.431 75.503 L 112.574 89.645 Z " fill="rgb(255,255,255)"/><path d=" M 135.935 73.168 L 145.595 70.58 L 140.418 51.261 L 130.759 53.85 L 135.935 73.168 Z " fill="rgb(255,255,255)"/><path d=" M 240 240 L 240 200 L 260 200 L 260 240 L 300 240 L 300 260 L 260 260 L 260 300 L 240 300 L 240 260 L 200 260 L 200 240 L 240 240 Z " fill="rgb(255,255,255)"/></g></g></svg>