<?xml version="1.0" standalone="no"?><!-- Generator: Gravit.io --><svg xmlns="http://www.w3.org/2000/svg" xmlns:xlink="http://www.w3.org/1999/xlink" style="isolation:isolate" viewBox="0 0 220 220" width="220" height="220"><defs><clipPath id="_clipPath_vG6MEXk1g59Ck6TO0uuIdkDQsCZ1DVOq"><rect width="220" height="220"/></clipPath></defs><g clip-path="url(#_clipPath_vG6MEXk1g59Ck6TO0uuIdkDQsCZ1DVOq)"><rect width="220" height="220" style="fill:rgb(185,185,185)"/><path d=" M 40 100 L 20 100 L 20 70 L 40 70 L 40 100 L 40 100 Z " fill="rgb(255,255,255)"/><path d=" M 180 100 L 200 100 L 200 70 L 180 70 L 180 100 L 180 100 Z " fill="rgb(255,255,255)"/><path d=" M 50 110 L 70 110 L 70 30 L 150 30 L 150 50 L 60 50 L 60 70 L 150 70 L 150 90 L 70 90 L 60 100 L 70 110 L 150 110 L 170 110 L 170 40 L 180 40 L 180 20 C 180 14.481 175.519 10 170 10 L 70 10 C 58.962 10 50 18.962 50 30 L 50 110 Z " fill="rgb(255,255,255)"/><path d=" M 30 120 L 190 120 C 195.519 120 200 124.481 200 130 L 200 180 L 20 180 L 20 130 C 20 124.481 24.481 120 30 120 Z " fill="rgb(255,255,255)"/><path d=" M 10 190 L 10 210 L 210 210 L 210 190 L 10 190 Z " fill="rgb(255,255,255)"/></g></svg>