<?xml version="1.0" standalone="no"?><!-- Generator: Gravit.io --><svg xmlns="http://www.w3.org/2000/svg" xmlns:xlink="http://www.w3.org/1999/xlink" style="isolation:isolate" viewBox="0 0 240 230" width="240" height="230"><defs><clipPath id="_clipPath_v88RPSWhy3BtRGfNymqBQNv11cnRG1YE"><rect width="240" height="230"/></clipPath></defs><g clip-path="url(#_clipPath_v88RPSWhy3BtRGfNymqBQNv11cnRG1YE)"><rect width="240" height="230" style="fill:rgb(185,185,185)"/><g style="isolation:isolate"><path d=" M 240 210 L 220 230 L 150 160 C 157.671 154.427 164.42 147.664 170 140 L 240 210 Z " fill="rgb(255,255,255)"/><path d=" M 169.95 79.988 C 169.978 124.155 134.142 160.035 89.975 160.063 C 45.808 160.09 9.928 124.255 9.9 80.088 L 169.95 79.988 Z " fill="rgb(235,235,235)"/><path d=" M 20 90 L 110 90 L 120 80 C 120 56.25 90.938 37.875 70 60 L 55 45 C 91.313 10.875 140 40.313 140 80 L 150 90 L 160 90 L 170.05 80 C 170.078 35.833 134.242 -0.047 90.075 -0.075 C 45.908 -0.103 10.028 35.733 10 79.9 L 20 90 Z " fill="rgb(235,235,235)"/></g></g></svg>