<?xml version="1.0" standalone="no"?><!-- Generator: Gravit.io --><svg xmlns="http://www.w3.org/2000/svg" xmlns:xlink="http://www.w3.org/1999/xlink" style="isolation:isolate" viewBox="0 0 260 270" width="260" height="270"><defs><clipPath id="_clipPath_skJj65gbfb73byKJfKJG0dj8aYXC2EcR"><rect width="260" height="270"/></clipPath></defs><g clip-path="url(#_clipPath_skJj65gbfb73byKJfKJG0dj8aYXC2EcR)"><rect width="260" height="270" style="fill:rgb(185,185,185)"/><path d=" M 0 269.697 C 51.333 255.031 61.357 243.508 80 199.697 C 93.333 168.364 159 178.031 160 219.697 C 161.376 277.014 113 269.697 0 269.697 Z " fill="rgb(255,255,255)"/><path d=" M 121.239 169.697 L 121.239 169.697 L 151.239 179.697 L 151.239 179.697 C 172.632 179.864 185.519 162.077 180 140 L 180 140 L 150 130 L 150 130 C 127.923 135.519 115.036 153.307 121.239 169.697 Z " fill="rgb(255,255,255)"/><path d=" M 160 120 L 230 0 L 250 10 L 190 130 L 160 120 Z " fill="rgb(255,255,255)"/></g></svg>