<?xml version="1.0" standalone="no"?><!-- Generator: Gravit.io --><svg xmlns="http://www.w3.org/2000/svg" xmlns:xlink="http://www.w3.org/1999/xlink" style="isolation:isolate" viewBox="0 0 310 320" width="310" height="320"><defs><clipPath id="_clipPath_GXP3LdvA1DimyOY1iZxKfCS4UXL7CZlF"><rect width="310" height="320"/></clipPath></defs><g clip-path="url(#_clipPath_GXP3LdvA1DimyOY1iZxKfCS4UXL7CZlF)"><rect width="310" height="320" style="fill:rgb(185,185,185)"/><path d=" M 0 130 L 50 130 L 50 160 L 90 160 L 90 130 L 190 130 L 190 160 L 230 160 L 230 130 L 280 130 L 280 170 L 210 170 L 210 220 L 160 220 L 160 270 L 20 270 C 8.962 270 0 261.038 0 250 L 0 130 Z " fill="rgb(255,255,255)"/><path d=" M 280 120 L 230 120 L 230 100 L 190 100 L 190 120 L 90 120 L 90 100 L 50 100 L 50 120 L 0 120 L 0 90 C 0 78.962 8.962 70 20 70 L 260 70 C 271.038 70 280 78.962 280 90 L 280 120 Z " fill="rgb(255,255,255)"/><path d=" M 60 150 L 80 150 L 80 110 L 60 110 L 60 150 Z " fill="rgb(255,255,255)"/><path d=" M 200 150 L 220 150 L 220 110 L 200 110 L 200 150 Z " fill="rgb(255,255,255)"/><path d=" M 90 60 L 90 40 L 190 40 L 190 60 L 210 60 L 210 30 C 210 24.481 205.519 20 200 20 L 80 20 C 74.481 20 70 24.481 70 30 L 70 60 L 90 60 Z " fill="rgb(255,255,255)"/><path d=" M 260 320 L 260 270 L 310 270 L 310 240 L 260 240 L 260 190 L 230 190 L 230 240 L 180 240 L 180 270 L 230 270 L 230 320 L 260 320 Z " fill="rgb(255,255,255)"/></g></svg>