<?xml version="1.0" standalone="no"?><!-- Generator: Gravit.io --><svg xmlns="http://www.w3.org/2000/svg" xmlns:xlink="http://www.w3.org/1999/xlink" style="isolation:isolate" viewBox="0 0 210 210" width="210" height="210"><defs><clipPath id="_clipPath_HjpMoxESWVWNfl5yl87quQfroDOjOKMZ"><rect width="210" height="210"/></clipPath></defs><g clip-path="url(#_clipPath_HjpMoxESWVWNfl5yl87quQfroDOjOKMZ)"><rect width="210" height="210" style="fill:rgb(185,185,185)"/><path d=" M 190 90 Q 203.075 70 204 70 C 189.584 29.232 150.679 0 105 0 C 59.321 0 20.416 29.232 6 70 L 50 100 C 68.738 107.48 78 116.667 90 130 C 96.13 101.551 116.14 71.561 150 40 L 170 70 L 190 90 Z " fill="rgb(235,235,235)"/><path d=" M 204 70 C 207.89 80.945 210 92.728 210 105 C 210 162.951 162.951 210 105 210 C 47.049 210 0 162.951 0 105 C 0 92.728 2.11 80.945 6 70 L 40 70 L 50 100 L 40 130 C 66.011 142.213 76.021 162.223 90 190 C 104.887 137.457 138.23 97.467 170 70 Q 202.028 70 204 70 Z " fill="rgb(235,235,235)"/></g></svg>