<?xml version="1.0" standalone="no"?><!-- Generator: Gravit.io --><svg xmlns="http://www.w3.org/2000/svg" xmlns:xlink="http://www.w3.org/1999/xlink" style="isolation:isolate" viewBox="0 0 280 280" width="280" height="280"><defs><clipPath id="_clipPath_LXrmhX7yIAKDnr3tn0sp6duS1qbstqfO"><rect width="280" height="280"/></clipPath></defs><g clip-path="url(#_clipPath_LXrmhX7yIAKDnr3tn0sp6duS1qbstqfO)"><rect width="280" height="280" style="fill:rgb(185,185,185)"/><path d=" M 150 130 L 180 130 C 191.038 130 200 121.038 200 110 L 200 30 C 200 18.962 191.038 10 180 10 L 150 10 L 150 89.75 L 170 90 L 170 110 L 150 110 L 150 130 L 150 130 Z " fill="rgb(255,255,255)"/><path d=" M 150 130 L 100 130 C 88.962 130 80 121.038 80 110 L 80 30 C 80 18.962 88.962 10 100 10 L 150 10 L 160 20 L 150 30 L 130 30 L 110 50 L 120 60 L 130 50 L 130 89.75 L 110 90 L 110 110 L 130 110 L 150 110 L 160 120 L 150 130 L 150 130 Z " fill="rgb(255,255,255)"/><path d=" M 10 230 L 10 170 C 10 158.962 18.962 150 30 150 L 110 150 C 121.038 150 130 158.962 130 170 L 130 230 L 120 240 L 110 240 L 100 230 L 70 230 C 116.5 216.5 104.75 151 40 170 L 40 190 C 87.25 174 94.25 205.75 40 230 L 30 240 L 20 240 L 10 230 L 10 230 Z " fill="rgb(255,255,255)"/><path d=" M 10 230 L 10 250 C 10 261.038 18.962 270 30 270 L 110 270 C 121.038 270 130 261.038 130 250 L 130 230 L 100 230 L 100 250 L 40 250 L 40 230 L 10 230 L 10 230 Z " fill="rgb(255,255,255)"/><g style="isolation:isolate"><path d=" M 270 170 C 270 158.962 261.038 150 250 150 L 170 150 C 158.962 150 150 158.962 150 170 L 150 210 L 190 210 L 190 205 C 243.25 202.25 211.75 169 180 190 L 180 170 C 246.75 146.5 254.25 210 220 210 L 270 210 L 270 170 Z " fill="rgb(255,255,255)"/><path d=" M 270 250 C 270 261.038 261.038 270 250 270 L 170 270 C 158.962 270 150 261.038 150 250 L 150 210 L 170 200 L 190 210 L 190 215 C 243.25 217.75 211.75 251 180 230 L 180 250 C 246.75 273.5 254.25 210 220 210 L 230 210 L 250 200 L 270 210 L 270 250 Z " fill="rgb(255,255,255)"/></g></g></svg>