<?xml version="1.0" standalone="no"?><!-- Generator: Gravit.io --><svg xmlns="http://www.w3.org/2000/svg" xmlns:xlink="http://www.w3.org/1999/xlink" style="isolation:isolate" viewBox="0 0 300 300" width="300" height="300"><defs><clipPath id="_clipPath_4kBfoOdsuuviTMnIRUU87i4Dhak5zaqx"><rect width="300" height="300"/></clipPath></defs><g clip-path="url(#_clipPath_4kBfoOdsuuviTMnIRUU87i4Dhak5zaqx)"><rect width="300" height="300" style="fill:rgb(185,185,185)"/><g style="isolation:isolate"><path d=" M 10 80 L 10 300 L 60 300 L 60 270 L 40 270 L 40 230 L 60 230 L 60 210 L 40 210 L 40 170 L 60 170 L 60 150 L 40 150 L 40 110 L 60 110 L 60 80 L 10 80 Z " fill="rgb(255,255,255)"/><path d=" M 290 80 L 290 300 L 240 300 L 240 270 L 260 270 L 260 230 L 240 230 L 240 210 L 260 210 L 260 170 L 240 170 L 240 150 L 260 150 L 260 110 L 240 110 L 240 80 L 290 80 Z " fill="rgb(255,255,255)"/><path d=" M 120 80 L 130 90 L 130 100 L 120 110 L 100 110 L 100 150 L 120 150 L 130 160 L 120 170 L 100 170 L 100 210 L 120 210 L 130 220 L 120 230 L 100 230 L 100 270 L 120 270 L 130 280 L 130 290 L 120 300 L 60 300 L 50 290 L 50 280 L 60 270 L 80 270 L 80 230 L 60 230 L 50 220 L 60 210 L 80 210 L 80 170 L 60 170 L 50 160 L 60 150 L 80 150 L 80 110 L 60 110 L 50 100 L 50 90 L 60 80 L 120 80 Z " fill="rgb(255,255,255)"/><path d=" M 180 80 L 190 90 L 190 100 L 180 110 L 160 110 L 160 150 L 180 150 L 190 160 L 180 170 L 160 170 L 160 210 L 180 210 L 190 220 L 180 230 L 160 230 L 160 270 L 180 270 L 190 280 L 190 290 L 180 300 L 120 300 L 110 290 L 110 280 L 120 270 L 140 270 L 140 230 L 120 230 L 110 220 L 120 210 L 140 210 L 140 170 L 120 170 L 110 160 L 120 150 L 140 150 L 140 110 L 120 110 L 110 100 L 110 90 L 120 80 L 180 80 Z " fill="rgb(255,255,255)"/><path d=" M 240 80 L 250 90 L 250 100 L 240 110 L 220 110 L 220 150 L 240 150 L 250 160 L 240 170 L 220 170 L 220 210 L 240 210 L 250 220 L 240 230 L 220 230 L 220 270 L 240 270 L 250 280 L 250 290 L 240 300 L 180 300 L 170 290 L 170 280 L 180 270 L 200 270 L 200 230 L 180 230 L 170 220 L 180 210 L 200 210 L 200 170 L 180 170 L 170 160 L 180 150 L 200 150 L 200 110 L 180 110 L 170 100 L 170 90 L 180 80 L 240 80 Z " fill="rgb(255,255,255)"/><path d=" M 210 220 L 210 280 L 270 280 L 270 220 L 210 220 Z " fill="rgb(255,255,255)"/><path d=" M 150 220 L 150 280 L 210 280 L 210 220 L 150 220 Z " fill="rgb(255,255,255)"/></g><path d=" M 150 20 L 90 20 L 90 10 L 90 10 C 78.962 -1.038 61.038 -1.038 50 10 L 50 10 L 50 20 L 10 20 L 10 60 L 50 60 L 50 30 L 90 30 L 90 50 L 40 50 L 50 60 L 90 60 L 150 60 L 150 20 Z " fill="rgb(255,255,255)"/><path d=" M 140 50 L 140 30 L 150 20 L 210 20 L 210 10 L 210 10 C 221.038 -1.038 238.962 -1.038 250 10 L 250 10 L 250 20 L 290 20 L 290 60 L 250 60 L 250 30 L 210 30 L 210 50 L 260 50 L 250 60 L 210 60 L 150 60 L 140 50 Z " fill="rgb(255,255,255)"/></g></svg>