<?xml version="1.0" standalone="no"?><!-- Generator: Gravit.io --><svg xmlns="http://www.w3.org/2000/svg" xmlns:xlink="http://www.w3.org/1999/xlink" style="isolation:isolate" viewBox="0 0 220 220" width="220" height="220"><defs><clipPath id="_clipPath_wWbwNjWLImNVhpj3KRf1E1x35HlfDIXn"><rect width="220" height="220"/></clipPath></defs><g clip-path="url(#_clipPath_wWbwNjWLImNVhpj3KRf1E1x35HlfDIXn)"><rect width="220" height="220" style="fill:rgb(206,206,206)"/><path d=" M 110 215 C 52.049 215 5 167.951 5 110 C 5 52.049 52.049 5 110 5 L 110 30 C 65.847 30 30 65.847 30 110 C 30 154.153 65.847 190 110 190 L 110 215 Z " fill="rgb(235,235,235)"/><path d=" M 110 215 C 167.951 215 215 167.951 215 110 C 215 52.049 167.951 5 110 5 L 110 30 C 154.153 30 190 65.847 190 110 C 190 154.153 154.153 190 110 190 L 110 215 Z " fill="rgb(235,235,235)"/><path d=" M 40 60 L 160 180 L 180 160 L 60 40 L 40 60 Z " fill="rgb(255,255,255)"/></g></svg>