<?xml version="1.0" standalone="no"?><!-- Generator: Gravit.io --><svg xmlns="http://www.w3.org/2000/svg" xmlns:xlink="http://www.w3.org/1999/xlink" style="isolation:isolate" viewBox="0 0 350 350" width="350" height="350"><defs><clipPath id="_clipPath_az7d7tmXKFlIR3Fwmwoc8dK5MJs7kYUF"><rect width="350" height="350"/></clipPath></defs><g clip-path="url(#_clipPath_az7d7tmXKFlIR3Fwmwoc8dK5MJs7kYUF)"><rect width="350" height="350" style="fill:rgb(185,185,185)"/><path d=" M 231.569 97.218 L 175 153.787 L 118.431 97.218 L 97.218 118.431 L 153.787 175 L 97.218 231.569 L 118.431 252.782 L 175 196.213 L 231.569 252.782 L 252.782 231.569 L 196.213 175 L 252.782 118.431 L 231.569 97.218 Z " fill="rgb(255,255,255)"/><path d=" M 190 340 L 175 350 C 78.415 350 0 271.585 0 175 C 0 78.415 78.415 0 175 0 L 190 10 L 175 20 C 89.453 20 20 89.453 20 175 C 20 260.547 89.453 330 175 330 L 190 340 Z " fill="rgb(235,235,235)"/><path d=" M 175 350 C 271.585 350 350 271.585 350 175 C 350 78.415 271.585 0 175 0 L 175 20 C 260.547 20 330 89.453 330 175 C 330 260.547 260.547 330 175 330 L 175 350 Z " fill="rgb(235,235,235)"/></g></svg>