<?xml version="1.0" standalone="no"?><!-- Generator: Gravit.io --><svg xmlns="http://www.w3.org/2000/svg" xmlns:xlink="http://www.w3.org/1999/xlink" style="isolation:isolate" viewBox="0 0 220 200" width="220" height="200"><defs><clipPath id="_clipPath_ODVoXq1gvYOJiAPggYlXZrDsKxU2Lu7I"><rect width="220" height="200"/></clipPath></defs><g clip-path="url(#_clipPath_ODVoXq1gvYOJiAPggYlXZrDsKxU2Lu7I)"><rect width="220" height="200" style="fill:rgb(185,185,185)"/><g style="isolation:isolate"><rect x="10" y="30" width="120" height="30" transform="matrix(1,0,0,1,0,0)" fill="rgb(255,255,255)"/><rect x="10" y="80" width="120" height="30" transform="matrix(1,0,0,1,0,0)" fill="rgb(255,255,255)"/><rect x="10" y="130" width="70" height="30" transform="matrix(1,0,0,1,0,0)" fill="rgb(255,255,255)"/><path d=" M 100 130 L 100 150 L 150 150 L 150 200 L 170 200 L 170 150 L 220 150 L 220 130 L 170 130 L 170 80 L 150 80 L 150 130 L 100 130 Z " fill="rgb(255,255,255)"/></g></g></svg>