<?xml version="1.0" standalone="no"?><!-- Generator: Gravit.io --><svg xmlns="http://www.w3.org/2000/svg" xmlns:xlink="http://www.w3.org/1999/xlink" style="isolation:isolate" viewBox="0 0 220 220" width="220" height="220"><defs><clipPath id="_clipPath_YydZpdNmdzJTUR0kweyMYeeZFWZXPTjQ"><rect width="220" height="220"/></clipPath></defs><g clip-path="url(#_clipPath_YydZpdNmdzJTUR0kweyMYeeZFWZXPTjQ)"><rect width="220" height="220" style="fill:rgb(185,185,185)"/><path d=" M 0 30 L 140 30 L 140 60 L 0 60 L 0 30 Z " fill="rgb(255,255,255)"/><path d=" M 0 80 L 110 80 L 110 110 L 0 110 L 0 80 Z " fill="rgb(255,255,255)"/><path d=" M 0 130 L 80 130 L 80 160 L 0 160 L 0 130 Z " fill="rgb(255,255,255)"/><path d=" M 220 200 L 100 200 L 100 170 C 100 153.443 112.433 145.111 127.747 151.407 L 141.502 157.062 C 151.711 161.259 168.289 161.259 178.498 157.062 L 192.253 151.407 C 207.567 145.111 220 153.443 220 170 L 220 200 Z " fill="rgb(255,255,255)"/><circle vector-effect="non-scaling-stroke" cx="160.00000000000003" cy="110" r="30" fill="rgb(235,235,235)"/></g></svg>