<?xml version="1.0" standalone="no"?><!-- Generator: Gravit.io --><svg xmlns="http://www.w3.org/2000/svg" xmlns:xlink="http://www.w3.org/1999/xlink" style="isolation:isolate" viewBox="0 0 250 310" width="250" height="310"><defs><clipPath id="_clipPath_37gfaB81QIoFWGB1idALkxhGedHgnWOf"><rect width="250" height="310"/></clipPath></defs><g clip-path="url(#_clipPath_37gfaB81QIoFWGB1idALkxhGedHgnWOf)"><rect width="250" height="310" style="fill:rgb(185,185,185)"/><g style="isolation:isolate"><g style="isolation:isolate"><path d=" M 40 310 L 60 310 L 140 90 L 120 90 L 40 310 Z " fill="rgb(255,255,255)"/><path d=" M 210 310 L 190 310 L 110 90 L 130 90 L 210 310 Z " fill="rgb(255,255,255)"/><path d=" M 150 160 L 150 180 L 90 210 L 90 190 L 150 160 Z " fill="rgb(255,255,255)"/><path d=" M 90 200 L 170 220 L 170 240 L 90 220 L 90 200 Z " fill="rgb(255,255,255)"/><path d=" M 60 270 L 170 220 L 170 240 L 60 290 L 60 270 Z " fill="rgb(255,255,255)"/><circle vector-effect="non-scaling-stroke" cx="125" cy="85" r="24.999999999999993" fill="rgb(255,255,255)"/></g><g style="isolation:isolate"><path d=" M 43.714 3.714 C 22.882 24.515 10 53.265 10 85 C 10 116.735 22.882 145.485 43.714 166.286 L 43.714 166.286 L 57.851 152.149 C 40.642 134.966 30 111.216 30 85 C 30 58.784 40.642 35.034 57.851 17.851 L 43.714 3.714 L 43.714 3.714 Z " fill="rgb(140,140,140)"/><path d=" M 206.284 3.714 C 227.116 24.515 239.998 53.265 239.998 85 C 239.998 116.735 227.116 145.485 206.284 166.286 L 206.284 166.286 L 192.147 152.149 C 209.356 134.966 219.998 111.216 219.998 85 C 219.998 58.784 209.356 35.034 192.147 17.851 L 206.284 3.714 L 206.284 3.714 Z " fill="rgb(140,140,140)"/><path d=" M 72.018 32.018 C 58.402 45.553 50 64.303 50 85 C 50 105.697 58.402 124.447 72.018 137.982 L 72.018 137.982 L 86.146 123.854 C 76.161 113.928 70 100.178 70 85 C 70 69.822 76.161 56.072 86.146 46.146 L 72.018 32.018 L 72.018 32.018 Z " fill="rgb(215,215,215)"/><path d=" M 177.98 32.018 C 191.596 45.553 199.998 64.303 199.998 85 C 199.998 105.697 191.596 124.447 177.98 137.982 L 177.98 137.982 L 163.852 123.854 C 173.837 113.928 179.998 100.178 179.998 85 C 179.998 69.822 173.837 56.072 163.852 46.146 L 177.98 32.018 L 177.98 32.018 Z " fill="rgb(215,215,215)"/></g></g></g></svg>