<?xml version="1.0" standalone="no"?><!-- Generator: Gravit.io --><svg xmlns="http://www.w3.org/2000/svg" xmlns:xlink="http://www.w3.org/1999/xlink" style="isolation:isolate" viewBox="0 0 280 240" width="280" height="240"><defs><clipPath id="_clipPath_N1kjMVuQL5oEJlHeliwFSNaxKKiO1CJd"><rect width="280" height="240"/></clipPath></defs><g clip-path="url(#_clipPath_N1kjMVuQL5oEJlHeliwFSNaxKKiO1CJd)"><rect width="280" height="240" style="fill:rgb(185,185,185)"/><path d=" M 270 110 L 270 190 L 230 190 L 200 230 L 170 190 L 10 190 L 10 110 L 50 110 L 50 110 C 50 121.038 58.962 130 70 130 L 70 130 C 81.038 130 90 121.038 90 110 L 90 110 L 120 110 L 120 110 C 120 121.038 128.962 130 140 130 L 140 130 C 151.038 130 160 121.038 160 110 L 160 110 L 190 110 L 190 110 C 190 121.038 198.962 130 210 130 L 210 130 C 221.038 130 230 121.038 230 110 L 230 110 L 270 110 L 270 110 Z " fill="rgb(255,255,255)"/><path d=" M 270 110 L 270 30 L 10 30 L 10 110 L 30 120 L 50 110 L 50 110 C 50 98.962 58.962 90 70 90 L 70 90 C 81.038 90 90 98.962 90 110 L 90 110 L 100 120 L 110 120 L 120 110 L 120 110 C 120 98.962 128.962 90 140 90 L 140 90 C 151.038 90 160 98.962 160 110 L 160 110 L 170 120 L 180 120 L 190 110 L 190 110 C 190 98.962 198.962 90 210 90 L 210 90 C 221.038 90 230 98.962 230 110 L 230 110 L 250 120 L 270 110 L 270 110 Z " fill="rgb(255,255,255)"/></g></svg>