<?xml version="1.0" standalone="no"?><!-- Generator: Gravit.io --><svg xmlns="http://www.w3.org/2000/svg" xmlns:xlink="http://www.w3.org/1999/xlink" style="isolation:isolate" viewBox="0 0 200 220" width="200" height="220"><defs><clipPath id="_clipPath_sjXXBLN9CEUHlk0Ifol2dIFxQWKudxRq"><rect width="200" height="220"/></clipPath></defs><g clip-path="url(#_clipPath_sjXXBLN9CEUHlk0Ifol2dIFxQWKudxRq)"><rect width="200" height="220" style="fill:rgb(185,185,185)"/><ellipse vector-effect="non-scaling-stroke" cx="100" cy="20" rx="100" ry="20" fill="rgb(255,255,255)"/><path d=" M 0 40 C 20.333 60.667 179.333 61.667 200 40 L 200 80 C 179 101.333 21 101.333 0 80 L 0 40 Z " fill="rgb(255,255,255)"/><path d=" M 0 100 C 20.333 120.667 179.333 121.667 200 100 L 200 140 C 179 161.333 21 161.333 0 140 L 0 100 Z " fill="rgb(255,255,255)"/><path d=" M 0 160 C 20.333 180.667 179.333 181.667 200 160 L 200 200 C 179 221.333 21 221.333 0 200 L 0 160 Z " fill="rgb(255,255,255)"/></g></svg>