<?xml version="1.0" standalone="no"?><!-- Generator: Gravit.io --><svg xmlns="http://www.w3.org/2000/svg" xmlns:xlink="http://www.w3.org/1999/xlink" style="isolation:isolate" viewBox="0 0 170 200" width="170" height="200"><defs><clipPath id="_clipPath_BNvPEW2fbMNl30OlPOWENjjOSLJCaEKD"><rect width="170" height="200"/></clipPath></defs><g clip-path="url(#_clipPath_BNvPEW2fbMNl30OlPOWENjjOSLJCaEKD)"><rect width="170" height="200" style="fill:rgb(185,185,185)"/><g style="isolation:isolate"><path d=" M 120 60 L 120 160 L 110 160 L 110 60 L 90 60 L 90 160 L 80 160 L 80 60 L 60 60 L 60 160 L 50 160 L 50 60 L 20 60 L 20 170 C 20 181.038 28.962 190 40 190 L 130 190 C 141.038 190 150 181.038 150 170 L 150 60 L 120 60 Z " fill="rgb(255,255,255)"/><path d=" M 10 40 L 160 40 L 160 20 L 120 20 L 110 10 L 60 10 L 50 20 L 10 20 L 10 40 Z " fill="rgb(255,255,255)"/></g></g></svg>