<?xml version="1.0" standalone="no"?><!-- Generator: Gravit.io --><svg xmlns="http://www.w3.org/2000/svg" xmlns:xlink="http://www.w3.org/1999/xlink" style="isolation:isolate" viewBox="0 0 190 200" width="190" height="200"><defs><clipPath id="_clipPath_OcUllYP1FgRQsv8JFf9I3ME7j9C5HV5T"><rect width="190" height="200"/></clipPath></defs><g clip-path="url(#_clipPath_OcUllYP1FgRQsv8JFf9I3ME7j9C5HV5T)"><rect width="190" height="200" style="fill:rgb(185,185,185)"/><g style="isolation:isolate"><path d=" M 10 130 L 60 180 L 0 190 L 10 130 Z " fill="rgb(255,255,255)"/><path d=" M 30 110 L 50 130 L 120 60 L 100 40 L 110 30 L 160 80 L 70 170 L 20 120 L 30 110 Z " fill="rgb(255,255,255)"/><path d=" M 120 20 L 170 70 L 182.929 57.071 C 186.832 53.168 186.832 46.832 182.929 42.929 L 147.071 7.071 C 143.168 3.168 136.832 3.168 132.929 7.071 L 120 20 Z " fill="rgb(255,255,255)"/><path d=" M 20 120 L 110 30 L 120 40 L 30 130 L 20 120 Z " fill="rgb(255,255,255)"/></g></g></svg>