<?xml version="1.0" standalone="no"?><!-- Generator: Gravit.io --><svg xmlns="http://www.w3.org/2000/svg" xmlns:xlink="http://www.w3.org/1999/xlink" style="isolation:isolate" viewBox="0 0 270 270" width="270" height="270"><defs><clipPath id="_clipPath_2kTzMgVxXUgt3jCzNsUjGLZtFxZSJACh"><rect width="270" height="270"/></clipPath></defs><g clip-path="url(#_clipPath_2kTzMgVxXUgt3jCzNsUjGLZtFxZSJACh)"><rect width="270" height="270" style="fill:rgb(185,185,185)"/><g style="isolation:isolate"/><path d=" M 120 210 L 120 210 L 120 210 C 114.481 182.404 92.077 155.519 70 150 L 70 150 L 80 130 L 80 130 C 96.557 135.519 114.481 148.962 120 160 L 120 160 L 120 160 C 131.038 132.404 157.923 96.557 180 80 L 180 80 L 200 90 L 200 90 C 177.923 106.557 142.077 160.328 120 210 Z " fill="rgb(255,255,255)"/><path d=" M 20 250 L 20 20 L 40 30 L 40 230 L 230 230 L 230 60 L 40 60 L 20 20 L 50 20 L 50 10 C 50 4.481 54.481 0 60 0 L 70 0 C 75.519 0 80 4.481 80 10 L 80 20 L 190 20 L 190 10 C 190 4.481 194.481 0 200 0 L 210 0 C 215.519 0 220 4.481 220 10 L 220 20 L 250 20 L 250 250 L 20 250 Z " fill="rgb(255,255,255)"/></g></svg>