<?xml version="1.0" standalone="no"?><!-- Generator: Gravit.io --><svg xmlns="http://www.w3.org/2000/svg" xmlns:xlink="http://www.w3.org/1999/xlink" style="isolation:isolate" viewBox="0 0 220 230" width="220" height="230"><defs><clipPath id="_clipPath_87mTkFEVevd02mcgxylOQY29HTaBSsx8"><rect width="220" height="230"/></clipPath></defs><g clip-path="url(#_clipPath_87mTkFEVevd02mcgxylOQY29HTaBSsx8)"><rect width="220" height="230" style="fill:rgb(185,185,185)"/><path d=" M 100 60 L 120 60 L 120 110 L 170 110 L 170 130 L 120 130 L 120 180 L 100 180 L 100 130 L 50 130 L 50 110 L 100 110 L 100 60 Z " fill="rgb(255,255,255)"/><path d=" M 110 230 C 49.289 230 0 180.711 0 120 C 0 59.289 49.289 10 110 10 L 110 25 C 57.568 25 15 67.568 15 120 C 15 172.432 57.568 215 110 215 L 110 230 Z " fill="rgb(235,235,235)"/><path d=" M 110 10 C 170.711 10 220 59.289 220 120 C 220 180.711 170.711 230 110 230 L 110 215 C 162.432 215 205 172.432 205 120 C 205 67.568 162.432 25 110 25 L 110 10 Z " fill="rgb(235,235,235)"/></g></svg>