<?xml version="1.0" standalone="no"?><!-- Generator: Gravit.io --><svg xmlns="http://www.w3.org/2000/svg" xmlns:xlink="http://www.w3.org/1999/xlink" style="isolation:isolate" viewBox="0 0 240 200" width="240" height="200"><defs><clipPath id="_clipPath_QcmLI36jfkqH3JPmjfjCBlmQ6pnJrH1p"><rect width="240" height="200"/></clipPath></defs><g clip-path="url(#_clipPath_QcmLI36jfkqH3JPmjfjCBlmQ6pnJrH1p)"><rect width="240" height="200" style="fill:rgb(185,185,185)"/><path d=" M 120 170 C 93.313 170.018 66.627 161.075 46.285 142.428 L 0 100 L 46.285 57.572 C 66.627 38.925 93.313 29.982 120 30 L 120 50 L 120 50 C 92.404 50 70 72.404 70 100 L 70 100 C 70 127.596 92.404 150 120 150 L 120 150 L 120 170.38 L 120 170 Z " fill="rgb(255,255,255)"/><path d=" M 120 170 C 146.687 170.018 173.373 161.075 193.715 142.428 L 240 100 L 193.715 57.572 C 173.373 38.925 146.687 29.982 120 30 L 120 50 L 120 50 C 147.596 50 170 72.404 170 100 L 170 100 C 170 127.596 147.596 150 120 150 L 120 150 L 120 170.38 L 120 170 Z " fill="rgb(255,255,255)"/><path d=" M 120 70 L 120 70 C 136.557 70 150 83.443 150 100 L 150 100 C 150 116.557 136.557 130 120 130 L 120 130 C 103.443 130 90 116.557 90 100 L 90 100 C 90 83.443 103.443 70 120 70 Z " fill="rgb(255,255,255)"/></g></svg>