<?xml version="1.0" standalone="no"?><!-- Generator: Gravit.io --><svg xmlns="http://www.w3.org/2000/svg" xmlns:xlink="http://www.w3.org/1999/xlink" style="isolation:isolate" viewBox="0 0 240 200" width="240" height="200"><defs><clipPath id="_clipPath_HXpkmati2vBavqdQ7ysVAYsdjBulMpC9"><rect width="240" height="200"/></clipPath></defs><g clip-path="url(#_clipPath_HXpkmati2vBavqdQ7ysVAYsdjBulMpC9)"><rect width="240" height="200" style="fill:rgb(206,206,206)"/><path d=" M 100 190 L 0 190 L 0 10 L 100 10 L 100 20 L 10 20 L 10 180 L 100 180 L 100 190 L 100 190 Z " fill="rgb(255,255,255)"/><path d=" M 90 190 L 240 190 L 240 10 L 90 10 L 90 20 L 230 20 L 230 180 L 90 180 L 90 190 L 90 190 Z " fill="rgb(255,255,255)"/><path d=" M 220 140 L 80 140 L 150 70 L 220 140 Z " fill="rgb(255,255,255)"/><path d=" M 20 140 L 120 140 L 70 90 L 20 140 Z " fill="rgb(255,255,255)"/></g></svg>