<?xml version="1.0" standalone="no"?><!-- Generator: Gravit.io --><svg xmlns="http://www.w3.org/2000/svg" xmlns:xlink="http://www.w3.org/1999/xlink" style="isolation:isolate" viewBox="0 0 270 270" width="270" height="270"><defs><clipPath id="_clipPath_wc2tXUueatGK7OnDwFsEhl7jpCcTOFq1"><rect width="270" height="270"/></clipPath></defs><g clip-path="url(#_clipPath_wc2tXUueatGK7OnDwFsEhl7jpCcTOFq1)"><rect width="270" height="270" style="fill:rgb(185,185,185)"/><g style="isolation:isolate"><path d=" M 150 30 L 150 50 L 140 60 C 128.962 60 120 68.962 120 80 C 120 91.038 128.962 100 140 100 L 150 110 L 130 109.484 C 120.69 108.126 109.479 111.67 100 120 L 100 130 Q 112.375 122.75 117.625 127.25 C 121.575 136.537 114.855 156.758 111.25 169.375 C 107.645 181.992 99.949 213.86 130 215.304 L 150 220 L 150 240 L 135 250 C 71.53 250 20 198.47 20 135 C 20 71.53 71.53 20 135 20 L 150 30 Z " fill="rgb(235,235,235)"/><path d=" M 140 60 C 151.038 60 160 68.962 160 80 C 160 91.038 151.038 100 140 100 L 130 109.484 C 136.911 110.45 142.774 114.117 146.125 120.5 C 149.476 126.883 145.75 152.5 138.625 178 Q 131.5 203.5 160 200 L 160 210 C 147.244 214.153 137.455 215.669 130 215.304 L 135 250 C 198.47 250 250 198.47 250 135 C 250 71.53 198.47 20 135 20 L 140 60 Z " fill="rgb(235,235,235)"/></g></g></svg>