<?xml version="1.0" standalone="no"?><!-- Generator: Gravit.io --><svg xmlns="http://www.w3.org/2000/svg" xmlns:xlink="http://www.w3.org/1999/xlink" style="isolation:isolate" viewBox="10 20 250 160" width="250" height="160"><g style="isolation:isolate"><path d=" M 20 50 L 120 50 L 120 20 L 130 20 L 130 60 L 10 60 L 10 20 L 130 20 L 130 30 L 20 30 L 20 50 Z " fill="rgb(255,255,255)"/><path d=" M 20 170 L 120 170 L 120 140 L 130 140 L 130 180 L 10 180 L 10 140 L 130 140 L 130 150 L 20 150 L 20 170 Z " fill="rgb(255,255,255)"/><path d=" M 140 100 L 200 40 L 200 90 L 260 90 L 260 110 L 200 110 L 200 160 L 140 100 Z " fill="rgb(255,255,255)"/><rect x="10" y="80" width="120" height="40" transform="matrix(1,0,0,1,0,0)" fill="rgb(255,255,255)"/></g></svg>