<?xml version="1.0" standalone="no"?><!-- Generator: Gravit.io --><svg xmlns="http://www.w3.org/2000/svg" xmlns:xlink="http://www.w3.org/1999/xlink" style="isolation:isolate" viewBox="0 0 280 200" width="280" height="200"><defs><clipPath id="_clipPath_yA82jU2OS3gNcOVOuh489baseEyRPG83"><rect width="280" height="200"/></clipPath></defs><g clip-path="url(#_clipPath_yA82jU2OS3gNcOVOuh489baseEyRPG83)"><rect width="280" height="200" style="fill:rgb(185,185,185)"/><g style="isolation:isolate"><path d=" M 0 110 L 0 50 L 0 50 C 0 38.962 8.962 30 20 30 L 20 30 L 140 30 L 140 40 L 20 40 L 20 40 C 14.481 40 10 44.481 10 50 L 10 50 L 10 110 L 0 110 L 0 110 Z " fill="rgb(255,255,255)"/><path d=" M 280 110 L 280 50 L 280 50 C 280 38.962 271.038 30 260 30 L 260 30 L 140 30 L 140 40 L 260 40 L 260 40 C 265.519 40 270 44.481 270 50 L 270 50 L 270 110 L 280 110 L 280 110 Z " fill="rgb(255,255,255)"/><path d=" M 0 110 L 0 170 L 0 170 C 0 181.038 8.962 190 20 190 L 20 190 L 140 190 L 140 180 L 20 180 L 20 180 C 14.481 180 10 175.519 10 170 L 10 170 L 10 110 L 0 110 L 0 110 Z " fill="rgb(255,255,255)"/><path d=" M 280 110 L 280 170 L 280 170 C 280 181.038 271.038 190 260 190 L 260 190 L 140 190 L 140 180 L 260 180 L 260 180 C 265.519 180 270 175.519 270 170 L 270 170 L 270 110 L 280 110 L 280 110 Z " fill="rgb(255,255,255)"/></g><rect x="80" y="140" width="120" height="20" transform="matrix(1,0,0,1,0,0)" fill="rgb(255,255,255)"/><path d=" M 250 60 L 230 60 L 230 100 L 210 100 L 210 120 L 250 120 L 250 60 Z " fill="rgb(255,255,255)"/><rect x="220" y="140" width="30" height="20" transform="matrix(1,0,0,1,0,0)" fill="rgb(255,255,255)"/><rect x="30" y="140" width="30" height="20" transform="matrix(1,0,0,1,0,0)" fill="rgb(255,255,255)"/><rect x="30" y="100" width="40" height="20" transform="matrix(1,0,0,1,0,0)" fill="rgb(235,235,235)"/><rect x="30" y="60" width="20" height="20" transform="matrix(1,0,0,1,0,0)" fill="rgb(235,235,235)"/><rect x="70" y="60" width="20" height="20" transform="matrix(1,0,0,1,0,0)" fill="rgb(235,235,235)"/><rect x="110" y="60" width="20" height="20" transform="matrix(1,0,0,1,0,0)" fill="rgb(235,235,235)"/><rect x="150" y="60" width="20" height="20" transform="matrix(1,0,0,1,0,0)" fill="rgb(235,235,235)"/><rect x="190" y="60" width="20" height="20" transform="matrix(1,0,0,1,0,0)" fill="rgb(235,235,235)"/><rect x="90" y="100" width="20" height="20" transform="matrix(1,0,0,1,0,0)" fill="rgb(235,235,235)"/><rect x="130" y="100" width="20" height="20" transform="matrix(1,0,0,1,0,0)" fill="rgb(235,235,235)"/><rect x="170" y="100" width="20" height="20" transform="matrix(1,0,0,1,0,0)" fill="rgb(235,235,235)"/></g></svg>