<?xml version="1.0" standalone="no"?><!-- Generator: Gravit.io --><svg xmlns="http://www.w3.org/2000/svg" xmlns:xlink="http://www.w3.org/1999/xlink" style="isolation:isolate" viewBox="0 0 290 230" width="290" height="230"><defs><clipPath id="_clipPath_61sjvu1OabOO95qZypUIawFQOunMGNLM"><rect width="290" height="230"/></clipPath></defs><g clip-path="url(#_clipPath_61sjvu1OabOO95qZypUIawFQOunMGNLM)"><rect width="290" height="230" style="fill:rgb(206,206,206)"/><g style="isolation:isolate"><path d=" M 180 60 L 180 80 L 160 100 L 160 80 L 70 80 L 70 210 L 110 210 L 130 230 L 50 230 L 50 60 L 180 60 Z " fill="rgb(255,255,255)"/><path d=" M 140 20 L 140 40 L 30 40 L 30 190 L 10 190 L 10 20 L 140 20 Z " fill="rgb(255,255,255)"/></g><g style="isolation:isolate"><path d=" M 138.787 218.787 L 121.213 201.213 C 109.505 189.505 109.505 170.495 121.213 158.787 L 175.858 104.142 C 183.663 96.337 196.337 96.337 204.142 104.142 L 220 120 L 205 135 L 190 120 L 130 180 L 160 210 L 185 185 L 200 200 L 181.213 218.787 C 169.505 230.495 150.495 230.495 138.787 218.787 Z " fill="rgb(255,255,255)"/><path d=" M 261.213 61.213 L 278.787 78.787 C 290.495 90.495 290.495 109.505 278.787 121.213 L 224.142 175.858 C 216.337 183.663 203.663 183.663 195.858 175.858 L 180 160 L 195 145 L 210 160 L 270 100 L 240 70 L 215 95 L 200 80 L 218.787 61.213 C 230.495 49.505 249.505 49.505 261.213 61.213 Z " fill="rgb(255,255,255)"/></g></g></svg>