<?xml version="1.0" standalone="no"?><!-- Generator: Gravit.io --><svg xmlns="http://www.w3.org/2000/svg" xmlns:xlink="http://www.w3.org/1999/xlink" style="isolation:isolate" viewBox="0 0 520 520" width="520" height="520"><defs><clipPath id="_clipPath_QRmxNekfnUq9Ux7lMnoBmE3hENK6elJe"><rect width="520" height="520"/></clipPath></defs><g clip-path="url(#_clipPath_QRmxNekfnUq9Ux7lMnoBmE3hENK6elJe)"><rect width="520" height="520" style="fill:rgb(185,185,185)"/><path d=" M 60 260 C 60 149.617 149.617 60 260 60 C 370.383 60 460 149.617 460 260 L 400 260 C 400 182.732 337.268 120 260 120 C 182.732 120 120 182.732 120 260 L 60 260 Z " fill="rgb(255,255,255)"/><path d=" M 118.633 401.367 C 82.404 365.192 60 315.192 60 260 L 80 240 L 100 240 L 120 260 C 120 298.634 135.683 333.634 161.043 358.957 L 118.633 401.367 L 118.633 401.367 Z " fill="rgb(255,255,255)"/><path d=" M 340 260 L 400 260 L 420 240 L 440 240 L 460 260 L 520 260 L 430 350 L 340 260 Z " fill="rgb(255,255,255)"/></g></svg>