<?xml version="1.0" standalone="no"?><!-- Generator: Gravit.io --><svg xmlns="http://www.w3.org/2000/svg" xmlns:xlink="http://www.w3.org/1999/xlink" style="isolation:isolate" viewBox="0 0 280 280" width="280" height="280"><defs><clipPath id="_clipPath_s9XoTwaMtGCKnh6xYraAhqSvqvTd36M0"><rect width="280" height="280"/></clipPath></defs><g clip-path="url(#_clipPath_s9XoTwaMtGCKnh6xYraAhqSvqvTd36M0)"><rect width="280" height="280" style="fill:rgb(185,185,185)"/><path d=" M 0 230 L 110 120 L 160 170 L 130 200 L 90 200 L 90 240 L 50 240 L 50 280 L 0 280 L 0 230 Z " fill="rgb(255,255,255)"/><path d=" M 210 40 L 210 40 C 193.443 40 180 53.443 180 70 L 180 70 C 180 86.557 193.443 100 210 100 L 210 100 L 185 190 C 132.568 190 90 147.432 90 95 C 90 42.568 132.568 0 185 0 L 210 40 Z " fill="rgb(235,235,235)"/><path d=" M 180 30 L 210 40 L 210 40 C 226.557 40 240 53.443 240 70 L 240 70 C 240 86.557 226.557 100 210 100 L 210 100 L 170 130 L 185 190 C 237.432 190 280 147.432 280 95 C 280 42.568 237.432 0 185 0 L 180 30 Z " fill="rgb(235,235,235)"/></g></svg>