<?xml version="1.0" standalone="no"?><!-- Generator: Gravit.io --><svg xmlns="http://www.w3.org/2000/svg" xmlns:xlink="http://www.w3.org/1999/xlink" style="isolation:isolate" viewBox="0 0 260 280" width="260" height="280"><defs><clipPath id="_clipPath_BkztxWAPPHxLfYNh6rYnfI4zmdg4r0PX"><rect width="260" height="280"/></clipPath></defs><g clip-path="url(#_clipPath_BkztxWAPPHxLfYNh6rYnfI4zmdg4r0PX)"><rect width="260" height="280" style="fill:rgb(185,185,185)"/><path d=" M 80 158.333 L 80 220 L 240 220 L 240 190 L 110 190 L 110 125.833 L 80 158.333 L 80 158.333 Z " fill="rgb(255,255,255)"/><path d=" M 80 71.667 L 80 10 L 240 10 L 240 40 L 110 40 L 110 104.167 L 80 71.667 L 80 71.667 Z " fill="rgb(255,255,255)"/><path d=" M 240 10 L 150 70 L 150 280 L 240 220 L 240 10 Z " fill="rgb(255,255,255)"/><path d=" M 0 100 L 0 130 L 40 130 L 40 170 L 90 115 L 40 60 L 40 100 L 0 100 Z " fill="rgb(255,255,255)"/></g></svg>