<?xml version="1.0" standalone="no"?><!-- Generator: Gravit.io --><svg xmlns="http://www.w3.org/2000/svg" xmlns:xlink="http://www.w3.org/1999/xlink" style="isolation:isolate" viewBox="0 0 220 220" width="220" height="220"><defs><clipPath id="_clipPath_Xw4fQACryoRkoF9wUCt5YuanbRAQ6pFy"><rect width="220" height="220"/></clipPath></defs><g clip-path="url(#_clipPath_Xw4fQACryoRkoF9wUCt5YuanbRAQ6pFy)"><rect width="220" height="220" style="fill:rgb(47,47,47)"/><g style="isolation:isolate"><radialGradient id="_rgradient_6" fx="0.5" fy="0.5" cx="0.5" cy="0.5" r="0.5" gradientTransform="matrix(220,0,0,220,0,0.458)" gradientUnits="userSpaceOnUse"><stop offset="72.17391304347827%" stop-opacity="1" style="stop-color:rgb(235,235,235)"/><stop offset="100%" stop-opacity="0" style="stop-color:rgb(255,255,255)"/></radialGradient><path d=" M 110 220 C 49.289 220 0 170.711 0 110 C 0 49.289 49.289 0 110 0 L 110 50 C 75.965 50 48.333 77.632 48.333 111.667 C 48.333 145.701 75.965 173.333 110 173.333 L 110 220 Z " fill="url(#_rgradient_6)"/><radialGradient id="_rgradient_7" fx="0.5" fy="0.5" cx="0.5" cy="0.5" r="0.5" gradientTransform="matrix(-220,0,0,220,220,0.458)" gradientUnits="userSpaceOnUse"><stop offset="72.17391304347827%" stop-opacity="1" style="stop-color:rgb(235,235,235)"/><stop offset="100%" stop-opacity="0" style="stop-color:rgb(255,255,255)"/></radialGradient><path d=" M 110 220 C 170.711 220 220 170.711 220 110 C 220 49.289 170.711 0 110 0 L 110 50 C 144.035 50 171.667 77.632 171.667 111.667 C 171.667 145.701 144.035 173.333 110 173.333 L 110 220 Z " fill="url(#_rgradient_7)"/></g><path d=" M 110 190 C 65.847 190 30 154.153 30 110 C 30 65.847 65.847 30 110 30 L 110 50 C 76.885 50 50 76.885 50 110 C 50 143.115 76.885 170 110 170 L 110 190 Z " fill="rgb(235,235,235)"/><path d=" M 100 180 L 110 190 C 154.153 190 190 154.153 190 110 C 190 65.847 154.153 30 110 30 L 100 40 L 110 50 C 143.115 50 170 76.885 170 110 C 170 143.115 143.115 170 110 170 L 100 180 Z " fill="rgb(235,235,235)"/></g></svg>