<?xml version="1.0" standalone="no"?><!-- Generator: Gravit.io --><svg xmlns="http://www.w3.org/2000/svg" xmlns:xlink="http://www.w3.org/1999/xlink" style="isolation:isolate" viewBox="0 0 200 240" width="200" height="240"><defs><clipPath id="_clipPath_3uaEE7adjjw0uHbPPrRMwTYdeoxTScKq"><rect width="200" height="240"/></clipPath></defs><g clip-path="url(#_clipPath_3uaEE7adjjw0uHbPPrRMwTYdeoxTScKq)"><rect width="200" height="240" style="fill:rgb(185,185,185)"/><path d=" M 100 230 L 10 230 L 10 110 L 100 110 L 100 150 L 100 150 C 88.962 150 80 158.962 80 170 L 80 170.333 C 80 181.188 88.812 190 99.667 190 L 100 190 L 100 230 L 100 230 Z " fill="rgb(255,255,255)"/><path d=" M 100 230 L 190 230 L 190 110 L 100 110 L 90 120 L 90 140 L 100 150 L 100 150 C 111.038 150 120 158.962 120 170 L 120 170 C 120 181.038 111.038 190 100 190 L 100 190 L 90 200 L 90 220 L 100 230 L 100 230 Z " fill="rgb(255,255,255)"/><path d=" M 140 120 L 170 120 L 170 80 C 170 41.366 138.634 10 100 10 C 61.366 10 30 41.366 30 80 L 30 120 L 60 120 L 60 80 C 60 57.923 77.923 40 100 40 C 122.077 40 140 57.923 140 80 L 140 120 Z " fill="rgb(235,235,235)"/></g></svg>