<?xml version="1.0" standalone="no"?><!-- Generator: Gravit.io --><svg xmlns="http://www.w3.org/2000/svg" xmlns:xlink="http://www.w3.org/1999/xlink" style="isolation:isolate" viewBox="0 0 320 240" width="320" height="240"><defs><clipPath id="_clipPath_VqrzNzYe7tskkh5Dhn34a3BjDvUJWWos"><rect width="320" height="240"/></clipPath></defs><g clip-path="url(#_clipPath_VqrzNzYe7tskkh5Dhn34a3BjDvUJWWos)"><rect width="320" height="240" style="fill:rgb(185,185,185)"/><path d=" M 150 180 C 59.667 223 0 196.625 0 40 C 19.75 69.5 110.25 26.75 160 90 L 170 100 L 170 150 L 160 150 L 150 160 Q 143.716 153.303 140 150 C 132 77 66.667 115.333 40 90 Q 36.667 170.667 140 150 L 160 150 L 170 150 L 170 170 L 160 180 Q 153.864 178.161 150 180 Z " fill="rgb(255,255,255)"/><path d=" M 170 180 C 260.333 223 320 196.625 320 40 C 300.25 69.5 209.75 26.75 160 90 L 150 100 L 150 150 L 160 150 L 170 160 Q 176.284 153.303 180 150 C 188 77 253.333 115.333 280 90 Q 283.333 170.667 180 150 L 160 150 L 150 150 L 150 170 L 160 180 Q 166.136 178.161 170 180 Z " fill="rgb(255,255,255)"/></g></svg>