<?xml version="1.0" standalone="no"?><!-- Generator: Gravit.io --><svg xmlns="http://www.w3.org/2000/svg" xmlns:xlink="http://www.w3.org/1999/xlink" style="isolation:isolate" viewBox="0 0 200 220" width="200" height="220"><defs><clipPath id="_clipPath_ZUpEUVg7oWrkxEhXIsnoZSn9nNLa0igN"><rect width="200" height="220"/></clipPath></defs><g clip-path="url(#_clipPath_ZUpEUVg7oWrkxEhXIsnoZSn9nNLa0igN)"><rect width="200" height="220" style="fill:rgb(185,185,185)"/><g style="isolation:isolate"><path d=" M 50 20 L 50 20 L 150 20 L 150 20 C 144.481 31.038 135.519 40 130 40 L 130 40 L 130 90 L 130 90 C 141.038 90 154.481 103.443 160 120 L 160 120 L 110 120 L 110 190 L 100 220 L 90 190 L 90 120 L 40 120 L 40 120 C 45.519 103.443 58.962 90 70 90 L 70 90 L 70 40 L 70 40 C 64.481 40 55.519 31.038 50 20 Z " fill="rgb(255,255,255)"/></g></g></svg>