<?xml version="1.0" standalone="no"?><!-- Generator: Gravit.io --><svg xmlns="http://www.w3.org/2000/svg" xmlns:xlink="http://www.w3.org/1999/xlink" style="isolation:isolate" viewBox="0 0 300 300" width="300" height="300"><defs><clipPath id="_clipPath_LoINwbJyie3ffUHeOsXQeYVP2DZWXlSi"><rect width="300" height="300"/></clipPath></defs><g clip-path="url(#_clipPath_LoINwbJyie3ffUHeOsXQeYVP2DZWXlSi)"><rect width="300" height="300" style="fill:rgb(185,185,185)"/><path d=" M 70 300 L 0 230 L 30 200 L 70 240 L 80 230 L 40 190 L 60 170 L 80 190 L 90 180 L 70 160 L 90 140 L 130 180 L 140 170 L 100 130 L 120 110 L 140 130 L 150 120 L 130 100 L 150 80 L 190 120 L 200 110 L 160 70 L 200 30 L 220 50 L 220 50 C 211.721 58.279 211.721 71.721 220 80 L 220 80 C 228.279 88.279 241.721 88.279 250 80 L 250 80 L 270 100 L 70 300 Z " fill="rgb(255,255,255)"/><path d=" M 300 70 L 230 0 L 200 30 L 200 50 L 220 50 L 220 50 C 228.279 41.721 241.721 41.721 250 50 L 250 50 C 258.279 58.279 258.279 71.721 250 80 L 250 80 L 250 100 L 270 100 L 300 70 Z " fill="rgb(255,255,255)"/></g></svg>