<?xml version="1.0" standalone="no"?><!-- Generator: Gravit.io --><svg xmlns="http://www.w3.org/2000/svg" xmlns:xlink="http://www.w3.org/1999/xlink" style="isolation:isolate" viewBox="0 0 310 230" width="310" height="230"><defs><clipPath id="_clipPath_mFB4Xx9Bv7oXNG7RYNzMS5s5COAL3vr7"><rect width="310" height="230"/></clipPath></defs><g clip-path="url(#_clipPath_mFB4Xx9Bv7oXNG7RYNzMS5s5COAL3vr7)"><rect width="310" height="230" style="fill:rgb(185,185,185)"/><path d=" M 0 190 L 30 70 L 60 190 L 0 190 Z " fill="rgb(255,255,255)"/><path d=" M 130 190 L 80 190 L 40 40 L 96.154 40 L 110 70 L 90 70 L 110 160 L 120 160 L 130 190 L 130 190 Z " fill="rgb(255,255,255)"/><path d=" M 170 190 L 130 190 L 130 190 L 120 180 L 120 160 L 130 160 L 150 70 L 130 70 L 120 140 L 110 70 L 100 50 L 96.154 40 L 170 40 L 170 70 L 160 70 L 160 160 L 170 160 L 170 190 L 170 190 Z " fill="rgb(255,255,255)"/><path d=" M 190 190 L 170 190 L 170 190 L 160 180 L 170 160 L 180 160 L 180 70 L 170 70 L 160 50 L 170 40 L 190 40 L 190 190 L 190 190 Z " fill="rgb(255,255,255)"/><path d=" M 190 190 L 310 190 L 270 40 L 190 40 L 180 50 L 190 70 L 220 70 C 236.557 70 250 83.443 250 100 L 250 100 C 250 116.557 236.557 130 220 130 L 210 130 L 210 160 L 190 160 L 180 180 L 190 190 L 190 190 Z " fill="rgb(255,255,255)"/><path d=" M 210 110 L 210 90 L 220 90 C 225.519 90 230 94.481 230 100 L 230 100 C 230 105.519 225.519 110 220 110 L 210 110 Z " fill="rgb(255,255,255)"/></g></svg>