<?xml version="1.0" standalone="no"?><!-- Generator: Gravit.io --><svg xmlns="http://www.w3.org/2000/svg" xmlns:xlink="http://www.w3.org/1999/xlink" style="isolation:isolate" viewBox="0 0 220 200" width="220" height="200"><defs><clipPath id="_clipPath_wrHjPNHa6L0Fn4u9KaU7k1EcfyZ3d6ZD"><rect width="220" height="200"/></clipPath></defs><g clip-path="url(#_clipPath_wrHjPNHa6L0Fn4u9KaU7k1EcfyZ3d6ZD)"><rect width="220" height="200" style="fill:rgb(185,185,185)"/><g style="isolation:isolate"><path d=" M 110 200 L 0 200 L 110 10 L 120 40 L 110 50 L 90 50 L 100 140 L 110 140 L 120 145 L 110 150 L 110 150 C 98.962 150 90 158.962 90 170 L 90 170 C 90 181.038 98.962 190 110 190 L 110 190 L 120 195 L 110 200 L 110 200 Z " fill="rgb(235,235,235)"/><path d=" M 110 200 L 220 200 L 110 10 L 110 50 L 130 50 L 120 140 L 110 140 L 110 150 L 110 150 C 121.038 150 130 158.962 130 170 L 130 170 C 130 181.038 121.038 190 110 190 L 110 190 L 110 200 L 110 200 Z " fill="rgb(235,235,235)"/></g></g></svg>