<?xml version="1.0" standalone="no"?><!-- Generator: Gravit.io --><svg xmlns="http://www.w3.org/2000/svg" xmlns:xlink="http://www.w3.org/1999/xlink" style="isolation:isolate" viewBox="0 0 290 220" width="290" height="220"><defs><clipPath id="_clipPath_IXeNIQwHjdIELWCFbiaSRn1pYWqyPzlN"><rect width="290" height="220"/></clipPath></defs><g clip-path="url(#_clipPath_IXeNIQwHjdIELWCFbiaSRn1pYWqyPzlN)"><rect width="290" height="220" style="fill:rgb(185,185,185)"/><path d=" M 170 20 L 170 40 C 170 51.038 161.038 60 150 60 L 140 60 C 128.962 60 120 51.038 120 40 L 120 20 L 60 20 L 60 70 L 60 70 C 76.557 70 90 83.443 90 100 L 90 100 C 90 116.557 76.557 130 60 130 L 60 130 L 60 150 L 80 140 L 100 150 L 100 180 L 60 180 L 60 220 L 120 220 L 120 80 L 290 80 L 290 20 L 170 20 Z " fill="rgb(255,255,255)"/><path d=" M 140 50 L 150 50 C 155.519 50 160 45.519 160 40 L 160 10 C 160 4.481 155.519 0 150 0 L 140 0 C 134.481 0 130 4.481 130 10 L 130 40 C 130 45.519 134.481 50 140 50 Z " fill="rgb(255,255,255)"/><path d=" M 60 20 L 0 20 L 0 220 L 60 220 L 60 180 L 20 180 L 20 150 L 40 140 L 60 150 L 60 130 L 60 130 C 43.443 130 30 116.557 30 100 L 30 100 C 30 83.443 43.443 70 60 70 L 60 70 L 60 20 Z " fill="rgb(255,255,255)"/><path d=" M 110 140 L 280 140 L 280 160 L 110 160 L 110 140 Z " fill="rgb(255,255,255)"/><path d=" M 110 100 L 280 100 L 280 120 L 110 120 L 110 100 Z " fill="rgb(255,255,255)"/><path d=" M 110 180 L 280 180 L 280 220 L 110 220 L 110 180 Z " fill="rgb(255,255,255)"/><path d=" M 290 220 L 270 220 L 270 190 L 210 190 L 210 150 L 270 150 L 270 70 L 290 70 L 290 220 Z " fill="rgb(255,255,255)"/></g></svg>