<?xml version="1.0" standalone="no"?><!-- Generator: Gravit.io --><svg xmlns="http://www.w3.org/2000/svg" xmlns:xlink="http://www.w3.org/1999/xlink" style="isolation:isolate" viewBox="0 0 220 220" width="220" height="220"><defs><clipPath id="_clipPath_QmoAibyl42UpWl09qY6aRSDnDQax8Hnm"><rect width="220" height="220"/></clipPath></defs><g clip-path="url(#_clipPath_QmoAibyl42UpWl09qY6aRSDnDQax8Hnm)"><rect width="220" height="220" style="fill:rgb(185,185,185)"/><path d=" M 50 70 L 170 70 L 170 0 L 190 0 L 220 30 L 220 220 L 190 220 L 190 90 L 30 90 L 30 220 L 0 220 L 0 0 L 50 0 L 50 70 Z " fill="rgb(255,255,255)"/><path d=" M 20 210 L 30 200 L 190 200 L 200 210 L 190 220 L 30 220 L 20 210 Z " fill="rgb(255,255,255)"/><path d=" M 150 0 L 120 0 L 120 40 L 150 40 L 150 0 Z " fill="rgb(255,255,255)"/><path d=" M 50 110 L 50 120 L 170 120 L 170 110 L 50 110 Z " fill="rgb(255,255,255)"/><path d=" M 50 140 L 50 150 L 170 150 L 170 140 L 50 140 Z " fill="rgb(255,255,255)"/><path d=" M 50 170 L 50 180 L 170 180 L 170 170 L 50 170 Z " fill="rgb(255,255,255)"/></g></svg>