<?xml version="1.0" standalone="no"?><!-- Generator: Gravit.io --><svg xmlns="http://www.w3.org/2000/svg" xmlns:xlink="http://www.w3.org/1999/xlink" style="isolation:isolate" viewBox="0 0 250 250" width="250" height="250"><defs><clipPath id="_clipPath_mbfUXRKg5C3Pb10YosVvQV1KHiZVnG4R"><rect width="250" height="250"/></clipPath></defs><g clip-path="url(#_clipPath_mbfUXRKg5C3Pb10YosVvQV1KHiZVnG4R)"><rect width="250" height="250" style="fill:rgb(206,206,206)"/><g style="isolation:isolate"><path d=" M 175 75 L 175 75 C 166.721 66.721 166.721 53.279 175 45 L 175 45 C 183.279 36.721 196.721 36.721 205 45 L 205 45 L 220 30 L 210 20 L 170 20 L 120 70 L 150 100 L 175 75 Z " fill="rgb(255,255,255)"/><path d=" M 175 75 L 175 75 C 183.279 83.279 196.721 83.279 205 75 L 205 75 C 213.279 66.721 213.279 53.279 205 45 L 205 45 L 220 30 L 230 40 L 230 80 L 180 130 L 150 100 L 175 75 Z " fill="rgb(255,255,255)"/></g><path d=" M 142.929 17.071 L 120 40 L 120 90 L 190 20 L 230 60 L 160 130 L 210 130 L 232.929 107.071 C 236.832 103.168 240 95.519 240 90 L 240 30 C 240 18.962 231.038 10 220 10 L 160 10 C 154.481 10 146.832 13.168 142.929 17.071 Z " fill="rgb(255,255,255)"/><path d=" M 10 150 L 100 240 L 210 130 L 120 40 L 10 150 Z " fill="rgb(255,255,255)"/></g></svg>