<?xml version="1.0" encoding="UTF-8" standalone="no"?><!-- Generator: Gravit.io --><svg xmlns="http://www.w3.org/2000/svg" xmlns:xlink="http://www.w3.org/1999/xlink" style="isolation:isolate" viewBox="0 0 240 240" width="240pt" height="240pt"><defs><clipPath id="_clipPath_xQxT12LH7RnI6H9vXYrPXl4Q9PMjcCie"><rect width="240" height="240"/></clipPath></defs><g clip-path="url(#_clipPath_xQxT12LH7RnI6H9vXYrPXl4Q9PMjcCie)"><rect width="240" height="240" style="fill:rgb(185,185,185)"/><g style="isolation:isolate"><path d=" M 0 120 C 0 186.23 53.77 240 120 240 C 186.23 240 240 186.23 240 120 C 237.501 120 208.126 120 210 120 C 210 169.672 169.672 210 120 210 C 70.328 210 30 169.672 30 120 L 0 120 Z " fill="rgb(235,235,235)"/><path d=" M 0 120 C 0 53.77 53.77 0 120 0 C 186.23 0 240 53.77 240 120 C 237.501 120 208.126 120 210 120 C 210 70.328 169.672 30 120 30 C 70.328 30 30 70.328 30 120 L 0 120 Z " fill="rgb(235,235,235)"/></g><g style="isolation:isolate"><path d=" M 169.091 170 L 159.091 180 L 109.091 130 L 109.091 60 L 129.091 60 L 129.091 120 L 169.091 170 Z " fill="rgb(255,255,255)"/></g></g></svg>