<?xml version="1.0" standalone="no"?><!-- Generator: Gravit.io --><svg xmlns="http://www.w3.org/2000/svg" xmlns:xlink="http://www.w3.org/1999/xlink" style="isolation:isolate" viewBox="0 0 280 280" width="280" height="280"><defs><clipPath id="_clipPath_uqZ22qM05AkEIkGbUO9zXfWhf0vxYGez"><rect width="280" height="280"/></clipPath></defs><g clip-path="url(#_clipPath_uqZ22qM05AkEIkGbUO9zXfWhf0vxYGez)"><rect width="280" height="280" style="fill:rgb(185,185,185)"/><g style="isolation:isolate"><path d=" M 140 280 C 62.732 280 0 217.268 0 140 C 0 62.732 62.732 0 140 0 L 140 15 C 71.011 15 15 71.011 15 140 C 15 208.989 71.011 265 140 265 L 140 280 Z " fill="rgb(255,255,255)"/><path d=" M 130 270 L 140 280 C 217.268 280 280 217.268 280 140 C 280 62.732 217.268 0 140 0 L 130 10 L 140 15 C 208.989 15 265 71.011 265 140 C 265 208.989 208.989 265 140 265 L 130 270 Z " fill="rgb(255,255,255)"/><path d=" M 90 260 L 150 270 L 210 250 L 250 210 L 270 170 L 270 120 L 260 95 L 250 110 L 253.586 135.101 C 254.366 140.564 252.996 140.992 250.528 136.056 L 235 105 C 231.046 107.671 221.056 106.015 214.364 103.508 C 209.196 101.572 208.168 103.168 212.071 107.071 L 220 115 C 223.509 107.211 226.852 108.887 230 120 C 225.877 123.016 220.887 129.693 217.48 135.658 C 216.111 138.055 213.683 138.188 212.06 135.956 C 206.995 128.988 198.672 118.998 194.754 114.932 C 192.13 112.21 188.705 111.295 187.11 112.89 L 187.11 112.89 C 185.945 114.055 186.219 116.88 187.72 119.196 C 193.614 128.288 201.958 138.298 210 145 L 220.299 142.425 C 225.653 141.087 227.289 143.568 223.951 147.963 C 210.296 165.936 201.516 177.328 204.24 195.058 C 204.66 197.786 203.32 200 201.25 200 L 201.25 200 C 195.041 200 190 206.721 190 215 L 190 220 L 175 230 L 159.285 236.286 C 154.16 238.336 150 235.519 150 230 L 150 220 C 142.75 210.083 142.76 203.427 150 200 C 147.656 190.125 142.594 181.688 137.723 175.348 C 139.219 170.297 140.063 168.891 140 165 C 131.906 166.359 128.359 164.604 130 160 C 106.891 167.172 93.568 163.849 90 150 C 85.459 143.956 86.697 134 90 120 C 91.969 111.656 101.109 108.563 110 100 C 123.39 100.711 133.4 99.054 133.4 99.054 C 137.043 96.817 140.784 99.313 141.75 104.625 C 141.75 104.625 157.578 110.328 157.578 110.328 C 161.674 112.907 165 111.639 165 107.5 L 165 107.5 C 165 103.361 168.361 101.12 172.5 102.5 L 172.5 102.5 C 176.639 103.88 180.798 104.364 181.782 103.581 C 181.782 103.581 185.582 98.536 185 95 C 179.578 92.391 179.172 88.283 180 85 C 180.923 81.337 188.997 81.423 190 80 C 191.003 78.577 176.625 68.766 170 75 C 167.484 79.594 170.578 80.859 170 85 C 164.354 85.313 161.031 91.989 161.031 91.989 C 160.462 93.651 158.998 92.996 157.764 90.528 L 157.236 89.472 C 156.002 87.004 155 87.24 155 90 L 155 95 L 145 90 C 148.073 85.792 136.416 82.469 136.416 82.469 C 132.875 81.106 128.012 82.983 125.562 86.656 L 125.547 86.679 C 122.486 91.272 116.639 95 112.5 95 L 112.5 95 C 108.361 95 106.417 90.749 108.162 85.513 L 110 80 L 120 80 L 120 75 L 125 70 L 125 70 C 122.24 70 120 67.76 120 65 L 120 65 L 120 65 C 114.481 65 113.168 61.832 117.071 57.929 L 117.929 57.071 C 121.832 53.168 125 54.481 125 60 L 125 60 L 130 70 C 134.685 60.345 143.028 58.688 155 65 L 155 50 C 155 47.24 153.88 45 152.5 45 L 152.5 45 C 151.12 45 149.262 46.68 148.352 48.749 C 148.352 48.749 148.362 53.759 148.362 53.759 C 149.266 57.203 145.992 57.996 141.056 55.528 L 140 55 L 140 55 C 137.24 55 135 52.76 135 50 L 135 50 C 135 47.24 137.048 44.091 139.57 42.971 C 140.484 42.565 144.539 37.938 150 35 C 155.461 32.063 165.023 38.531 165 45 C 164.977 51.469 170.125 50.344 170 45 Q 169.875 39.656 175 35 C 174.843 30.902 171.519 25.912 165 20 L 170 10 L 150 10 L 140 30 C 135.628 33.364 130.638 35.041 125 35 C 122.99 40.896 121.333 44.239 120 45 C 119.236 48.732 115.912 50.409 110 50 L 110 45 L 90 50 L 90 40 C 90 37.24 88.416 36.584 86.464 38.536 L 85 40 L 85 45 C 82.344 48.49 79.02 50.166 75 50 L 71.213 65.149 C 70.543 67.826 67.996 68.998 65.528 67.764 L 60 65 C 61.174 69.254 57.85 70.931 50 70 C 48.318 74.863 43.328 78.206 35 80 L 25 80 L 10 120 L 30 120 L 30 130 L 40 140 L 40 160 L 50 170 L 60 170 L 50 190 L 60 200 L 50 210 L 60 220 L 50 240 L 90 260 Z " fill="rgb(255,255,255)"/></g></g></svg>