<?xml version="1.0" standalone="no"?><!-- Generator: Gravit.io --><svg xmlns="http://www.w3.org/2000/svg" xmlns:xlink="http://www.w3.org/1999/xlink" style="isolation:isolate" viewBox="0 0 220 230" width="220" height="230"><defs><clipPath id="_clipPath_nxkbhWuxc6BeyG6yGPblPHMh8UlOua2z"><rect width="220" height="230"/></clipPath></defs><g clip-path="url(#_clipPath_nxkbhWuxc6BeyG6yGPblPHMh8UlOua2z)"><rect width="220" height="230" style="fill:rgb(185,185,185)"/><g style="isolation:isolate"><path d=" M 10 10 L 10 200 L 50 150 L 80 220 L 110 210 L 80 140 L 140 140 L 10 10 Z " fill="rgb(255,255,255)"/></g><g style="isolation:isolate"><path d=" M 130.803 52.161 C 134.424 33.826 150.61 20 170 20 L 170 35 C 157.881 35 147.765 43.641 145.502 55.1 L 130.803 52.161 L 130.803 52.161 Z " fill="rgb(235,235,235)"/><path d=" M 190.583 94.306 C 202.212 87.301 210 74.553 210 60 C 210 37.923 192.077 20 170 20 L 170 35 C 183.798 35 195 46.202 195 60 C 195 69.095 190.132 77.063 182.865 81.441 L 178.731 82.988 C 168.393 86.858 160 98.962 160 110 L 160 120 L 180 120 L 180 110 L 180 110 C 180 103.193 184.742 96.161 190.583 94.306 L 190.583 94.306 L 190.583 94.306 Z " fill="rgb(235,235,235)"/><path d=" M 160 140 L 180 140 L 180 160 L 160 160 L 160 140 Z " fill="rgb(255,255,255)"/></g></g></svg>