<?xml version="1.0" standalone="no"?><!-- Generator: Gravit.io --><svg xmlns="http://www.w3.org/2000/svg" xmlns:xlink="http://www.w3.org/1999/xlink" style="isolation:isolate" viewBox="0 0 200 200" width="200" height="200"><defs><clipPath id="_clipPath_iDlRjjVA1glNI08rVEfws6otVWKEKPUw"><rect width="200" height="200"/></clipPath></defs><g clip-path="url(#_clipPath_iDlRjjVA1glNI08rVEfws6otVWKEKPUw)"><rect width="200" height="200" style="fill:rgb(185,185,185)"/><g style="isolation:isolate"><path d=" M 70 190 Q 47.125 190 40 190 L 40 30 Q 47.607 30 70 30 L 70 190 L 70 190 Z " fill="rgb(255,255,255)"/><path d=" M 60 190 C 61.75 190 74.75 190 90 190 C 131 190 160 182.125 160 140 C 160 131.25 159.125 107.875 130 100 Q 150 93.727 150 70 C 150 40.25 133.25 30 90 30 C 75.071 30 62.255 30 60 30 L 60 50 Q 72.377 50 90 50 C 107.623 50 120 54.875 120 70 C 120 85.125 111.115 90 90 90 Q 68.885 90 60 90 L 60 110 Q 68.65 110 90 110 C 111.35 110 130 118.004 130 140 C 130 161.996 109.501 170 90 170 Q 70.499 170 60 170 L 60 190 L 60 190 Z " fill="rgb(255,255,255)"/></g></g></svg>