<?xml version="1.0" standalone="no"?><!-- Generator: Gravit.io --><svg xmlns="http://www.w3.org/2000/svg" xmlns:xlink="http://www.w3.org/1999/xlink" style="isolation:isolate" viewBox="0 0 200 200" width="200" height="200"><defs><clipPath id="_clipPath_m9P3xi1IraZf9AE96ikz7IaTDKXfZbJc"><rect width="200" height="200"/></clipPath></defs><g clip-path="url(#_clipPath_m9P3xi1IraZf9AE96ikz7IaTDKXfZbJc)"><rect width="200" height="200" style="fill:rgb(185,185,185)"/><path d=" M 110 40 L 90 40 L 60 70 L 75 85 L 90 70 L 90 130 L 60 130 L 60 150 L 140 150 L 140 130 L 110 130 L 110 40 Z " fill="rgb(255,255,255)"/><path d=" M 50 10 L 50 30 L 20 30 L 20 170 L 50 170 L 50 190 L 0 190 L 0 10 L 50 10 Z " fill="rgb(255,255,255)"/><path d=" M 150 190 L 150 170 L 180 170 L 180 30 L 150 30 L 150 10 L 200 10 L 200 190 L 150 190 Z " fill="rgb(255,255,255)"/></g></svg>