<?xml version="1.0" standalone="no"?><!-- Generator: Gravit.io --><svg xmlns="http://www.w3.org/2000/svg" xmlns:xlink="http://www.w3.org/1999/xlink" style="isolation:isolate" viewBox="0 0 300 300" width="300" height="300"><defs><clipPath id="_clipPath_zmSd7cfgNJQbkeE2WdpR1CGqwAfUBRDs"><rect width="300" height="300"/></clipPath></defs><g clip-path="url(#_clipPath_zmSd7cfgNJQbkeE2WdpR1CGqwAfUBRDs)"><rect width="300" height="300" style="fill:rgb(206,206,206)"/><g style="isolation:isolate"><path d=" M 60 140 L 60 100 C 60 88.962 68.962 80 80 80 L 140 140 L 60 140 Z " fill="rgb(255,255,255)"/><path d=" M 260 140 L 260 100 C 260 88.962 251.038 80 240 80 L 180 80 L 186.279 29.768 C 188.333 13.339 176.557 0 160 0 L 160 0 C 143.443 0 131.667 13.339 133.721 29.768 L 140 80 L 120 80 L 180 140 L 260 140 Z " fill="rgb(255,255,255)"/><path d=" M 251.682 251.682 C 246.673 266.803 239.439 276.225 230 280 L 180 280 C 186.732 275.44 190.055 262.097 190 240 C 185.025 260.608 181.875 270.125 170 280 L 100 280 C 108.663 268.606 121.987 245.263 120 210 C 115.621 248.112 95.611 271.435 80 280 L 10 280 C 42.843 257.843 59.5 217.833 60 160 L 160 160 L 251.682 251.682 L 251.682 251.682 Z " fill="rgb(255,255,255)"/><path d=" M 258.355 218.355 C 260.148 202.089 260.69 182.619 260 160 L 200 160 L 258.355 218.355 L 258.355 218.355 Z " fill="rgb(255,255,255)"/><path d=" M 50 30 L 20 30 L 270 280 L 300 280 L 50 30 Z " fill="rgb(255,255,255)"/></g></g></svg>