<?xml version="1.0" standalone="no"?><!-- Generator: Gravit.io --><svg xmlns="http://www.w3.org/2000/svg" xmlns:xlink="http://www.w3.org/1999/xlink" style="isolation:isolate" viewBox="0 0 200 210" width="200" height="210"><defs><clipPath id="_clipPath_QPC3nqeFoCOlHGWeRcJhBnFVG4JtgdHr"><rect width="200" height="210"/></clipPath></defs><g clip-path="url(#_clipPath_QPC3nqeFoCOlHGWeRcJhBnFVG4JtgdHr)"><rect width="200" height="210" style="fill:rgb(185,185,185)"/><g style="isolation:isolate"><path d=" M 30 40 L 30 40 L 20 40 L 20 30 L 85 30 L 85 40 L 75 40 L 75 40 C 69.481 40 65 44.481 65 50 L 65 50 L 65 100 L 135 100 L 135 50 L 135 50 C 135 44.481 130.519 40 125 40 L 125 40 L 115 40 L 115 30 L 180 30 L 180 40 L 170 40 L 170 40 C 164.481 40 160 44.481 160 50 L 160 50 L 160 170 L 160 170 C 160 175.519 164.481 180 170 180 L 170 180 L 180 180 L 180 190 L 115 190 L 115 180 L 125 180 L 125 180 C 130.519 180 135 175.519 135 170 L 135 170 L 135 120 L 65 120 L 65 170 L 65 170 C 65 175.519 69.481 180 75 180 L 75 180 L 85 180 L 85 190 L 20 190 L 20 180 L 30 180 L 30 180 C 35.519 180 40 175.519 40 170 L 40 170 L 40 50 L 40 50 C 40 44.481 35.519 40 30 40 Z " fill="rgb(255,255,255)"/></g></g></svg>