<?xml version="1.0" standalone="no"?><!-- Generator: Gravit.io --><svg xmlns="http://www.w3.org/2000/svg" xmlns:xlink="http://www.w3.org/1999/xlink" style="isolation:isolate" viewBox="0 0 240 230" width="240" height="230"><defs><clipPath id="_clipPath_CPldmeXbvMO5VtqjzTbs3YMl0cfBBpki"><rect width="240" height="230"/></clipPath></defs><g clip-path="url(#_clipPath_CPldmeXbvMO5VtqjzTbs3YMl0cfBBpki)"><rect width="240" height="230" style="fill:rgb(206,206,206)"/><path d=" M 90 90 L 50 90 L 50 90 C 33.443 90 20 105.683 20 125 L 20 125 C 20 144.317 33.443 160 50 160 L 50 160 L 110 160 L 110 160 C 110 171.038 101.038 180 90 180 L 50 180 L 50 180 C 22.404 180 0 155.355 0 125 L 0 125 C 0 94.645 22.404 70 50 70 L 50 70 L 70 70 L 90 90 L 90 90 Z " fill="rgb(255,255,255)"/><path d=" M 213.502 173.502 C 229.273 164.274 240 146.004 240 125 L 240 125 C 240 94.645 217.596 70 190 70 L 190 70 L 150 70 C 138.962 70 130 78.962 130 90 L 130 90 L 190 90 L 190 90 C 206.557 90 220 105.683 220 125 L 220 125 C 220 140.855 210.944 154.261 198.534 158.534 L 213.502 173.502 L 213.502 173.502 Z " fill="rgb(255,255,255)"/><path d=" M 140 140 L 85 140 C 76.721 140 70 133.279 70 125 L 70 125 C 70 116.721 76.721 110 85 110 L 110 110 L 140 140 L 140 140 Z " fill="rgb(255,255,255)"/><path d=" M 169.368 129.368 C 169.774 127.981 170 126.517 170 125 L 170 125 C 170 116.721 163.279 110 155 110 L 150 110 L 169.368 129.368 L 169.368 129.368 Z " fill="rgb(255,255,255)"/><path d=" M 10 30 L 40 30 L 230 220 L 200 220 L 10 30 Z " fill="rgb(255,255,255)"/></g></svg>