<?xml version="1.0" standalone="no"?><!-- Generator: Gravit.io --><svg xmlns="http://www.w3.org/2000/svg" xmlns:xlink="http://www.w3.org/1999/xlink" style="isolation:isolate" viewBox="0 0 240 230" width="240" height="230"><defs><clipPath id="_clipPath_Jtjqohww9OBiaLBB0LrBb17QHTLVZUDH"><rect width="240" height="230"/></clipPath></defs><g clip-path="url(#_clipPath_Jtjqohww9OBiaLBB0LrBb17QHTLVZUDH)"><rect width="240" height="230" style="fill:rgb(206,206,206)"/><path d=" M 50 180 L 50 180 C 22.404 180 0 155.355 0 125 L 0 125 C 0 94.645 22.404 70 50 70 L 50 70 L 90 70 C 101.038 70 110 78.962 110 90 L 110 90 L 50 90 L 50 90 C 33.443 90 20 105.683 20 125 L 20 125 C 20 144.317 33.443 160 50 160 L 50 160 L 110 160 L 110 160 C 110 171.038 101.038 180 90 180 L 50 180 Z " fill="rgb(255,255,255)"/><path d=" M 190 70 L 190 70 C 217.596 70 240 94.645 240 125 L 240 125 C 240 155.355 217.596 180 190 180 L 190 180 L 150 180 C 138.962 180 130 171.038 130 160 L 130 160 L 190 160 L 190 160 C 206.557 160 220 144.317 220 125 L 220 125 C 220 105.683 206.557 90 190 90 L 190 90 L 130 90 L 130 90 C 130 78.962 138.962 70 150 70 L 190 70 Z " fill="rgb(255,255,255)"/><path d=" M 70 125 L 70 125 C 70 133.279 76.721 140 85 140 L 155 140 C 163.279 140 170 133.279 170 125 L 170 125 C 170 116.721 163.279 110 155 110 L 85 110 C 76.721 110 70 116.721 70 125 Z " fill="rgb(255,255,255)"/></g></svg>