<?xml version="1.0" standalone="no"?><!-- Generator: Gravit.io --><svg xmlns="http://www.w3.org/2000/svg" xmlns:xlink="http://www.w3.org/1999/xlink" style="isolation:isolate" viewBox="0 0 200 200" width="200" height="200"><defs><clipPath id="_clipPath_fPvNtVQwA3abY4HcYl3snJBs7702peEZ"><rect width="200" height="200"/></clipPath></defs><g clip-path="url(#_clipPath_fPvNtVQwA3abY4HcYl3snJBs7702peEZ)"><rect width="200" height="200" style="fill:rgb(206,206,206)"/><g style="isolation:isolate"><g style="isolation:isolate"><path d=" M 70 40 L 70 60 L 190 60 L 190 40 L 70 40 Z " fill="rgb(255,255,255)"/><path d=" M 70 100 L 70 120 L 190 120 L 190 100 L 70 100 Z " fill="rgb(255,255,255)"/><path d=" M 70 160 L 70 180 L 190 180 L 190 160 L 70 160 Z " fill="rgb(255,255,255)"/></g><path d=" M 40 20 L 30 20 L 20 30 L 30 40 L 30 60 L 20 60 L 20 70 L 50 70 L 50 60 L 40 60 L 40 20 Z " fill="rgb(255,255,255)"/><g style="isolation:isolate"><path d=" M 50 120 L 50 130 L 20 130 L 20 120 L 50 120 Z " fill="rgb(255,255,255)"/></g><path d=" M 20 120 L 20 120 C 31.038 114.481 40 105.519 40 100 L 40 100 C 40 94.481 35.519 90 30 90 L 30 90 L 20 90 L 20 80 L 30 80 L 30 80 C 41.038 80 50 88.962 50 100 L 50 100 C 50 111.038 36.557 124.481 20 130 L 20 130 L 20 120 Z " fill="rgb(255,255,255)"/><path d=" M 50 185 L 50 185 C 50 179.481 45.519 175 40 175 L 40 175 L 40 175 C 45.519 175 50 170.519 50 165 L 50 165 C 50 156.721 43.279 150 35 150 L 20 150 L 20 160 L 30 160 L 35 160 C 37.76 160 40 162.24 40 165 L 40 165 C 40 167.76 37.76 170 35 170 L 30 170 L 30 180 L 35 180 C 37.76 180 40 182.24 40 185 L 40 185 C 40 187.76 37.76 190 35 190 L 30 190 L 20 190 L 20 200 L 35 200 C 43.279 200 50 193.279 50 185 Z " fill="rgb(255,255,255)"/></g></g></svg>