<?xml version="1.0" standalone="no"?><!-- Generator: Gravit.io --><svg xmlns="http://www.w3.org/2000/svg" xmlns:xlink="http://www.w3.org/1999/xlink" style="isolation:isolate" viewBox="0 0 190 200" width="190" height="200"><defs><clipPath id="_clipPath_lxO1XKw4zNEfzu256NtzhNoAQD9h3yc1"><rect width="190" height="200"/></clipPath></defs><g clip-path="url(#_clipPath_lxO1XKw4zNEfzu256NtzhNoAQD9h3yc1)"><rect width="190" height="200" style="fill:rgb(185,185,185)"/><rect x="0" y="30" width="80" height="80" transform="matrix(1,0,0,1,0,0)" fill="rgb(255,255,255)"/><rect x="110" y="30" width="80" height="80" transform="matrix(1,0,0,1,0,0)" fill="rgb(255,255,255)"/><path d=" M 40 100 L 40 110 L 40 110 C 40 132.077 22.077 158.962 0 170 L 0 170 L 0 190 L 23.82 181.067 C 54.827 169.44 80 137.596 80 110 L 80 110 L 70 100 L 40 100 Z " fill="rgb(255,255,255)"/><path d=" M 150 100 L 150 110 L 150 110 C 150 132.077 132.077 158.962 110 170 L 110 170 L 110 190 L 133.82 181.067 C 164.827 169.44 190 137.596 190 110 L 190 110 L 180 100 L 150 100 Z " fill="rgb(255,255,255)"/></g></svg>