<?xml version="1.0" standalone="no"?><!-- Generator: Gravit.io --><svg xmlns="http://www.w3.org/2000/svg" xmlns:xlink="http://www.w3.org/1999/xlink" style="isolation:isolate" viewBox="0 0 200 250" width="200" height="250"><defs><clipPath id="_clipPath_xqpDcyM58vmnOruceMAFjeWGaGBzu8cr"><rect width="200" height="250"/></clipPath></defs><g clip-path="url(#_clipPath_xqpDcyM58vmnOruceMAFjeWGaGBzu8cr)"><rect width="200" height="250" style="fill:rgb(185,185,185)"/><g style="isolation:isolate"><g style="isolation:isolate"><g style="isolation:isolate"><path d=" M 150 75 C 150 94.317 163.411 109.975 179.93 109.945 Q 179.93 109.945 180 110 Q 191.215 110 200 105 L 200 115 Q 194.75 120 180 120 Q 179.75 120 179.75 120 C 157.811 120 140 99.836 140 75 L 150 75 L 150 75 Z " fill="rgb(255,255,255)"/><path d=" M 150 75 C 150 55.683 163.411 40.025 179.93 40.055 Q 179.93 40.055 180 40 Q 191.215 40 200 45 L 200 35 Q 194.75 30 180 30 Q 179.75 30 179.75 30 C 157.811 30 140 50.164 140 75 L 150 75 L 150 75 Z " fill="rgb(255,255,255)"/></g><g style="isolation:isolate"><path d=" M 90 30 L 80 30 L 80 120 L 90 120 L 90 30 Z " fill="rgb(255,255,255)"/><path d=" M 90 105 L 100 105 L 100 105 C 111.038 107.76 120 102.159 120 92.5 L 120 92.5 C 120 82.841 111.038 77.24 100 80 L 100 80 L 90 80 L 90 65 L 100 65 L 100 65 C 105.519 65 110 60.519 110 55 L 110 55 C 110 49.481 105.519 45 100 45 L 100 45 L 90 45 L 90 30 L 100 30 L 100 30 C 113.798 30 125 41.462 125 52.5 L 125 52.5 C 125 63.538 113.798 80.103 100 80 L 100 65 L 100 65 C 116.557 65.103 130 78.702 130 92.5 L 130 92.5 C 130 106.298 116.557 120 100 120 L 100 120 L 90 120 L 90 105 Z " fill="rgb(255,255,255)"/></g><g style="isolation:isolate"><path d=" M 10 120 L 0 120 L 30 30 L 40 30 L 10 120 Z " fill="rgb(255,255,255)"/><path d=" M 60 120 L 70 120 L 40 30 L 30 30 L 60 120 Z " fill="rgb(255,255,255)"/><path d=" M 15 80 L 55 80 L 55 95 L 15 95 L 15 80 Z " fill="rgb(255,255,255)"/></g></g><path d=" M 84 250 L 84 250 L 84 250 C 70.754 227.923 46.557 201.038 30 190 L 30 190 L 40 170 L 40 170 C 56.557 181.038 74.481 198.962 80 210 L 80 210 L 80 210 C 87.549 179.784 115.298 141.026 141.928 123.503 L 141.928 123.503 L 161.928 133.503 L 161.928 133.503 C 134.234 154.612 99.316 206.813 84 250 Z " fill="rgb(255,255,255)"/><g style="isolation:isolate"><path d=" M 155 75 C 155 94.317 163.481 105.03 180 105 Q 180 105 180.07 105.055 Q 191.215 105 200 100 L 200 115 Q 194.75 120 180 120 Q 179.75 120 179.75 120 C 157.811 120 140 99.836 140 75 L 155 75 L 155 75 Z " fill="rgb(255,255,255)"/><path d=" M 155 75 C 155 55.683 163.411 45.025 179.93 45.055 Q 179.93 45.055 180 45 Q 191.215 45 200 50 L 200 35 Q 194.75 30 180 30 Q 179.75 30 179.75 30 C 157.811 30 140 50.164 140 75 L 155 75 L 155 75 Z " fill="rgb(255,255,255)"/></g><g style="isolation:isolate"><path d=" M 95 30 L 80 30 L 80 120 L 95 120 L 95 30 Z " fill="rgb(255,255,255)"/><path d=" M 90 105 L 100 105 L 100 105 C 108.279 105 115 99.399 115 92.5 L 115 92.5 C 115 85.601 108.279 80 100 80 L 100 80 L 90 80 L 90 65 L 100 65 L 100 65 C 105.519 65 110 60.519 110 55 L 110 55 C 110 49.481 105.519 45 100 45 L 100 45 L 90 45 L 90 30 L 100 30 L 100 30 C 113.798 30 125 41.462 125 52.5 L 125 52.5 C 125 63.538 113.798 80.103 100 80 L 100 65 L 100 65 C 116.557 65.103 130 78.702 130 92.5 L 130 92.5 C 130 106.298 116.557 120 100 120 L 100 120 L 90 120 L 90 105 Z " fill="rgb(255,255,255)"/></g><g style="isolation:isolate"><path d=" M 15 120 L 0 120 L 30 30 L 40 45 L 15 120 Z " fill="rgb(255,255,255)"/><path d=" M 55 120 L 70 120 L 40 30 L 30 45 L 55 120 Z " fill="rgb(255,255,255)"/><path d=" M 15 80 L 55 80 L 55 95 L 15 95 L 15 80 Z " fill="rgb(255,255,255)"/></g></g></g></svg>