<?xml version="1.0" standalone="no"?><!-- Generator: Gravit.io --><svg xmlns="http://www.w3.org/2000/svg" xmlns:xlink="http://www.w3.org/1999/xlink" style="isolation:isolate" viewBox="0 0 200 210" width="200" height="210"><defs><clipPath id="_clipPath_VaFZKDQY2rTM4xTEgOotFFE8g3T2fW9C"><rect width="200" height="210"/></clipPath></defs><g clip-path="url(#_clipPath_VaFZKDQY2rTM4xTEgOotFFE8g3T2fW9C)"><rect width="200" height="210" style="fill:rgb(185,185,185)"/><g style="isolation:isolate"><path d=" M 40 210 L 40 190 L 160 190 L 160 210 L 40 210 Z " fill="rgb(255,255,255)"/><path d=" M 40 110 L 40 110 L 40 30 L 60 30 L 60 110 L 60 110 C 60 132.077 77.923 150 100 150 L 100 150 L 100 150 C 122.077 150 140 132.077 140 110 L 140 110 L 140 30 L 160 30 L 160 110 L 160 110 C 160 143.115 133.115 170 100 170 L 100 170 L 100 170 C 66.885 170 40 143.115 40 110 Z " fill="rgb(255,255,255)"/></g></g></svg>